<svg width="1532" height="1196" viewBox="0 0 1532 1196" fill="none" xmlns="http://www.w3.org/2000/svg">
<g clip-path="url(#clip0_265_2)">
<path fill-rule="evenodd" clip-rule="evenodd" d="M1093.82 184.996C1262.19 265.99 1448.03 367.358 1480.65 551.328C1516.05 750.963 1114.37 945.241 951.418 1065.89C790.101 1166.5 655.787 1142.87 445.361 1007.95C385.988 969.882 309.484 946.761 184.246 779.329C157.187 743.153 21.7922 518.57 145.625 330.854C253.482 167.355 485.598 195.574 679.191 165.794C823.063 143.663 962.64 121.896 1093.82 184.996Z" fill="url(#paint0_radial_265_2)"/>
<ellipse cx="266.29" cy="283.452" rx="22.1325" ry="24.0333" transform="rotate(5.43873 266.29 283.452)" fill="#C3C3C3"/>
<ellipse cx="231.087" cy="293.177" rx="22.1325" ry="24.0333" transform="rotate(5.43873 231.087 293.177)" fill="#C3C3C3"/>
<ellipse cx="286.937" cy="377.961" rx="22.1325" ry="24.0333" transform="rotate(5.43873 286.937 377.961)" fill="#C3C3C3"/>
<ellipse cx="251.734" cy="387.687" rx="22.1325" ry="24.0333" transform="rotate(5.43873 251.734 387.687)" fill="#C3C3C3"/>
<rect width="33.1854" height="91.5353" transform="matrix(0.975121 -0.221673 0.17677 0.984252 234.092 290.823)" fill="#C3C3C3"/>
<ellipse cx="581.098" cy="544.319" rx="22.1325" ry="24.0333" transform="rotate(133.914 581.098 544.319)" fill="#C3C3C3"/>
<ellipse cx="595.385" cy="510.709" rx="22.1325" ry="24.0333" transform="rotate(133.914 595.385 510.709)" fill="#C3C3C3"/>
<ellipse cx="494.264" cy="501.678" rx="22.1325" ry="24.0333" transform="rotate(133.914 494.264 501.678)" fill="#C3C3C3"/>
<ellipse cx="508.551" cy="468.069" rx="22.1325" ry="24.0333" transform="rotate(133.914 508.551 468.069)" fill="#C3C3C3"/>
<rect width="33.1854" height="91.5353" transform="matrix(-0.433159 0.901317 -0.880528 -0.473994 595.359 514.526)" fill="#C3C3C3"/>
<ellipse cx="964.161" cy="284.497" rx="22.1325" ry="24.0333" transform="rotate(79.4292 964.161 284.497)" fill="#C3C3C3"/>
<ellipse cx="945.103" cy="253.342" rx="22.1325" ry="24.0333" transform="rotate(79.4292 945.103 253.342)" fill="#C3C3C3"/>
<ellipse cx="879.011" cy="330.407" rx="22.1325" ry="24.0333" transform="rotate(79.4292 879.011 330.407)" fill="#C3C3C3"/>
<ellipse cx="859.952" cy="299.252" rx="22.1325" ry="24.0333" transform="rotate(79.4292 859.952 299.252)" fill="#C3C3C3"/>
<rect width="33.1854" height="91.5353" transform="matrix(0.482012 0.876164 -0.897326 0.441368 948.195 255.581)" fill="#C3C3C3"/>
<ellipse cx="1157.08" cy="823.46" rx="22.1325" ry="24.0333" transform="rotate(79.4292 1157.08 823.46)" fill="#C3C3C3"/>
<ellipse cx="1138.02" cy="792.305" rx="22.1325" ry="24.0333" transform="rotate(79.4292 1138.02 792.305)" fill="#C3C3C3"/>
<ellipse cx="1071.93" cy="869.37" rx="22.1325" ry="24.0333" transform="rotate(79.4292 1071.93 869.37)" fill="#C3C3C3"/>
<ellipse cx="1052.87" cy="838.215" rx="22.1325" ry="24.0333" transform="rotate(79.4292 1052.87 838.215)" fill="#C3C3C3"/>
<rect width="33.1854" height="91.5353" transform="matrix(0.482012 0.876164 -0.897326 0.441368 1141.12 794.544)" fill="#C3C3C3"/>
<ellipse cx="344.812" cy="704.363" rx="22.1325" ry="24.0333" transform="rotate(34.3767 344.812 704.363)" fill="#C3C3C3"/>
<ellipse cx="309.299" cy="695.841" rx="22.1325" ry="24.0333" transform="rotate(34.3767 309.299 695.841)" fill="#C3C3C3"/>
<ellipse cx="317.15" cy="797.061" rx="22.1325" ry="24.0333" transform="rotate(34.3767 317.15 797.061)" fill="#C3C3C3"/>
<ellipse cx="281.636" cy="788.54" rx="22.1325" ry="24.0333" transform="rotate(34.3767 281.636 788.54)" fill="#C3C3C3"/>
<rect width="33.1854" height="91.5353" transform="matrix(0.960631 0.277829 -0.321544 0.946895 313.066 695.235)" fill="#C3C3C3"/>
<ellipse cx="1261.39" cy="477.101" rx="22.1325" ry="24.0333" transform="rotate(13.5905 1261.39 477.101)" fill="#C3C3C3"/>
<ellipse cx="1225.17" cy="481.737" rx="22.1325" ry="24.0333" transform="rotate(13.5905 1225.17 481.737)" fill="#C3C3C3"/>
<ellipse cx="1268.43" cy="573.584" rx="22.1325" ry="24.0333" transform="rotate(13.5905 1268.43 573.584)" fill="#C3C3C3"/>
<ellipse cx="1232.2" cy="578.22" rx="22.1325" ry="24.0333" transform="rotate(13.5905 1232.2 578.22)" fill="#C3C3C3"/>
<rect width="33.1854" height="91.5353" transform="matrix(0.996701 -0.0811649 0.0354203 0.999372 1228.48 479.833)" fill="#C3C3C3"/>
<ellipse cx="1261.39" cy="477.101" rx="22.1325" ry="24.0333" transform="rotate(13.5905 1261.39 477.101)" fill="#C3C3C3"/>
<ellipse cx="1225.17" cy="481.737" rx="22.1325" ry="24.0333" transform="rotate(13.5905 1225.17 481.737)" fill="#C3C3C3"/>
<ellipse cx="1268.43" cy="573.584" rx="22.1325" ry="24.0333" transform="rotate(13.5905 1268.43 573.584)" fill="#C3C3C3"/>
<ellipse cx="1232.2" cy="578.22" rx="22.1325" ry="24.0333" transform="rotate(13.5905 1232.2 578.22)" fill="#C3C3C3"/>
<rect width="33.1854" height="91.5353" transform="matrix(0.996701 -0.0811649 0.0354203 0.999372 1228.48 479.833)" fill="#C3C3C3"/>
<mask id="mask0_265_2" style="mask-type:luminance" maskUnits="userSpaceOnUse" x="354" y="143" width="751" height="984">
<path d="M1049.53 583.601C1026.47 547.722 996.262 514.695 986.392 473.198C978.143 438.514 985.244 402.183 993.436 367.484C1001.63 332.786 1010.97 297.416 1007.11 261.972C996.761 167.082 897.409 121.589 815.617 165.321C810.836 167.878 806.206 170.652 801.708 173.617C782.634 148.746 746.078 138.434 714.521 145.032C677.696 152.731 647.152 178.29 622.005 206.273C595.151 236.156 572.127 270.624 562.177 309.548C555.167 336.962 555.381 366.83 564.438 393.393C537.753 405.054 510.105 415.131 483.578 427.031C431.022 450.608 378.42 486.333 360.742 541.152C343.501 594.61 363.716 652.707 389.211 702.754C414.707 752.804 446.303 801.757 453.508 857.463C456.837 883.211 454.766 909.522 459.404 935.067C469.39 990.055 509.61 1035.41 555.952 1066.64C644.806 1126.52 761.711 1142.65 863.463 1109.08C965.215 1075.5 1049.56 992.957 1085.32 891.954C1121.09 790.95 1107.48 673.726 1049.53 583.601Z" fill="white"/>
</mask>
<g mask="url(#mask0_265_2)">
<path d="M669.172 190.245C672.359 172.677 686.02 158.016 702.508 151.162C723.321 142.512 749.487 146.314 765.129 162.544C777.171 175.036 782.007 194.037 777.402 210.767C772.798 227.496 758.923 241.345 742.183 245.918C722.968 251.168 707.369 242.339 690.574 234.527C674.383 226.994 666.053 207.448 669.172 190.245Z" fill="#472948"/>
<path d="M765.131 162.542C749.489 146.312 723.323 142.51 702.509 151.16C690.56 156.126 680.116 165.208 674.048 176.512C681.841 168.661 691.442 162.661 702.071 159.605C721.935 153.898 744.879 159.092 759.445 173.754C771.326 185.713 776.788 203.775 773.674 220.197C775.236 217.193 776.503 214.035 777.404 210.762C782.006 194.035 777.172 175.036 765.131 162.542Z" fill="#654059"/>
<path d="M855.274 463.789C844.533 453.852 836.124 440.67 830.155 426.252C826.457 417.376 823.693 408.126 821.489 398.847C821.417 397.596 821.337 396.341 821.269 395.094C818.982 352.518 817.803 307.542 795.254 271.356C773.279 236.084 731.43 214.18 689.923 216.222C648.416 218.265 608.921 244.168 590.512 281.427C572.102 318.684 575.521 365.794 599.117 400.003C603.103 405.779 605.88 412.072 607.668 418.683C607.566 420.972 607.394 423.295 607.126 425.648C606.006 435.676 603.264 446.124 598.808 455.813C594.343 465.496 588.188 474.372 581.295 481.744C574.412 489.143 566.813 495.009 559.745 499.43C567.413 496.173 575.803 490.992 583.379 483.818C590.965 476.682 597.702 467.582 602.37 457.455C606.409 448.678 608.845 439.222 609.744 430.083C612.775 460.191 598.335 494.634 579.797 518.868C671.225 518.446 765.723 515.689 857.151 515.269C840.008 495.87 831.326 471.411 826.616 445.667C828.21 448.27 829.879 450.822 831.714 453.239C836.817 460.083 842.969 466.073 849.576 470.801C856.197 475.538 863.328 479.066 870.424 481.183C877.499 483.369 884.551 484.009 890.847 483.599C878.553 480.53 865.936 473.822 855.274 463.789Z" fill="#472948"/>
<path d="M607.293 270.19C631.427 242.188 669.522 226.861 706.324 230.346C743.128 233.833 777.667 256.039 796.114 288.075C812.393 316.347 815.844 349.281 820.575 381.921C818.515 343.378 815.489 303.831 795.257 271.355C773.281 236.082 731.433 214.178 689.926 216.221C648.419 218.263 608.924 244.166 590.514 281.425C580.955 300.77 577.334 322.767 579.313 344.241C579.916 317.346 589.706 290.597 607.293 270.19Z" fill="#654059"/>
<path d="M547.393 1136.3L544.559 1047.88C543.473 1013.96 552.168 980.449 569.607 951.342L580.953 932.408L908.309 952.249L918.699 973.503C938.795 1014.6 940.919 1062.21 924.566 1104.93L899.723 1169.85L547.393 1136.3Z" fill="#454F6B"/>
<path d="M827.813 1021.71C860.713 1012.13 892.245 998.521 923.515 984.455C922.031 980.765 920.461 977.102 918.701 973.505L908.311 952.254L580.955 932.413L569.61 951.347C567.013 955.682 564.634 960.124 562.427 964.642C606.871 996.263 658.459 1024.95 712.193 1032.63C750.808 1038.15 790.36 1032.6 827.813 1021.71Z" fill="#422C4F"/>
<path d="M639.178 1047.36L699.366 1073.16C713.405 1079.18 729.066 1080.27 743.803 1076.26L826.66 1053.68L746.423 1089.66C739.332 1092.83 734.202 1099.23 732.64 1106.85L723.16 1153.04L709.932 1151.78L712.312 1107.51C712.787 1098.7 708.421 1090.34 700.928 1085.69L639.178 1047.36Z" fill="#422C4F"/>
<path d="M924.631 966.267L896.714 901.87C884.149 872.891 877.787 841.602 878.038 810.016L880.476 500.425L834.324 495.405C820.307 530.451 784.794 556.583 746.846 557.872C707.409 559.209 668.78 533.597 653.513 497.425L622.257 498.694C628.182 532.737 623.32 570.584 611.014 602.872C604.369 620.307 595.235 636.69 588.153 653.953C581.07 671.215 576.017 689.882 578.152 708.418C579.327 718.613 583.018 728.76 588.931 737.103C600.819 753.866 608.02 773.491 608.286 794.041L608.667 823.41C609.086 855.732 600.659 887.554 584.3 915.432L563.901 950.196C607.16 981.443 657.829 1010.26 710.656 1017.81C747.494 1023.08 785.226 1017.79 820.957 1007.39C856.682 996.999 890.726 981.607 924.631 966.267Z" fill="#EBA7AC"/>
<path d="M841.617 641.733C842.569 652.506 860.708 671.772 878.994 688.652L880.151 541.702C844.058 565.114 839.668 619.705 841.617 641.733Z" fill="#E68799"/>
<path d="M860.605 964.967C844.349 969.998 825.79 974.978 805.813 978.359C785.854 981.779 764.524 983.616 743.186 983.4C721.849 983.118 700.567 980.781 680.692 976.897C660.801 973.052 642.363 967.639 626.227 962.229C639.822 972.401 657.432 981.924 677.593 988.622C697.72 995.37 720.315 999.281 742.996 999.569C765.676 999.811 788.357 996.43 808.636 990.153C828.95 983.926 846.776 974.816 860.605 964.967Z" fill="#E68799"/>
<path d="M847.768 939.413C838.52 941.768 828.026 944.423 816.797 946.715C805.574 949.023 793.623 950.969 781.597 952.285C769.567 953.579 757.479 954.241 746.022 954.397C734.563 954.568 723.742 954.225 714.206 953.911C723.152 957.192 733.935 959.835 745.671 961.191C757.4 962.565 770.06 962.651 782.575 961.302C795.09 959.935 807.438 957.133 818.597 953.274C829.768 949.431 839.735 944.536 847.768 939.413Z" fill="#E68799"/>
<path d="M827.935 544.809C817.653 551.936 805.313 558.782 791.416 563.587C777.557 568.422 762.208 571.217 746.885 571.032C731.563 570.816 716.292 567.622 702.565 562.427C688.799 557.26 676.641 550.096 666.55 542.702C673.794 552.873 684.848 563.097 698.86 570.544C712.803 578.038 729.635 582.706 746.733 582.929C763.831 583.152 780.777 578.924 794.913 571.797C809.109 564.72 820.427 554.79 827.935 544.809Z" fill="#E68799"/>
<path d="M878.035 810.018L878.089 803.206C788.481 794.082 698.29 790.74 608.255 793.193C608.262 793.477 608.281 793.758 608.283 794.042L608.664 823.412C608.906 842.095 606.176 860.605 600.682 878.291L684.339 830.331C681.688 839.439 681.72 849.809 683.488 859.132C685.253 868.454 690.261 877.386 698.154 882.647C706.051 887.908 716.938 888.949 725.105 884.121C731.112 880.572 735.144 874.325 737.396 867.72C738.813 863.565 739.599 859.242 740.148 854.877C740.183 852.289 740.397 849.708 740.952 847.144C740.714 849.721 740.473 852.307 740.148 854.877C740.075 860.331 740.882 865.827 741.553 871.315C742.542 879.408 746.781 887.575 754.137 891.086C763.92 895.754 776.116 890.642 782.946 882.226C789.775 873.809 792.502 862.888 795.044 852.352L882.575 856.944C879.441 841.541 877.911 825.817 878.035 810.018Z" fill="#E68799"/>
<path d="M614.603 642.768L535.236 635.212L500.688 776.586C500.168 778.715 499.779 780.858 499.468 783.005L584.543 767.314L614.603 642.768Z" fill="#BD6C67"/>
<path d="M746.839 557.871C784.787 556.585 820.302 530.45 834.317 495.404L776.247 489.086L759.246 402.246L684.629 453.668L693.714 495.789L653.505 497.424C668.772 533.596 707.404 559.208 746.839 557.871Z" fill="#BD6C67"/>
<path d="M684.626 453.67L689.369 475.662C728.402 498.893 762.114 460.239 759.244 402.25L684.626 453.67Z" fill="#472948"/>
<path d="M635.663 425.487C628.426 426.128 621.095 426.762 613.931 425.556C606.768 424.35 599.668 421.075 595.336 415.243C591.003 409.411 590.099 400.763 594.412 394.918C598.709 389.092 607.774 387.509 613.793 391.53C618.196 403.07 626.764 416.925 635.663 425.487Z" fill="#A64F5A"/>
<path d="M767.512 389.749C762.815 411.609 757.269 434.99 740.634 449.934C724.47 464.453 700.162 467.769 679.352 461.521C658.542 455.276 641.057 440.555 627.954 423.225C603.889 391.393 593.362 349.659 599.459 310.223C633.846 289.262 676.631 281.162 716.305 288.078C714.021 301.179 718.495 316.282 724.538 328.128C730.585 339.972 740.555 349.772 752.503 355.61C750.762 360.616 751.906 365.78 753.965 370.665C756.024 375.55 759.938 379.626 764.738 381.876C765.11 374.369 767.363 367.817 771.751 361.714C776.138 355.611 783.124 351.155 790.637 350.863C798.146 350.571 805.907 354.96 808.6 361.975C811.663 369.955 807.913 378.981 802.792 385.822C798.568 391.465 793.092 396.545 786.303 398.447C779.511 400.348 771.266 395.714 767.512 389.749Z" fill="#BD6C67"/>
<path d="M799.187 360.164C794.164 358.151 788.162 359.65 784.018 363.129C779.875 366.608 777.432 371.794 776.374 377.101C775.957 379.184 775.743 381.38 776.385 383.407C777.027 385.434 778.693 387.25 780.801 387.521C783.596 387.879 786.005 385.551 787.501 383.164C788.94 380.87 790.015 378.198 789.73 375.504C789.446 372.81 787.481 370.167 784.798 369.799C787.029 365.083 793.977 360.442 799.187 360.164Z" fill="#A64F5A"/>
<path d="M713.124 328.861C709.443 320.529 700.414 314.871 691.31 315.187C682.206 315.504 673.595 321.775 670.501 330.344C683.259 330.063 700.366 329.142 713.124 328.861Z" fill="#472948"/>
<path d="M626.825 338.062C625.389 335.717 623.928 333.343 621.931 331.454C619.934 329.565 617.301 328.186 614.553 328.276C610.341 328.414 606.878 332.001 605.523 335.991C604.17 339.98 604.473 344.317 604.796 348.517C611.152 345.486 620.467 341.095 626.825 338.062Z" fill="#472948"/>
<path d="M692.721 368.692C697.288 369.127 701.343 365.778 701.777 361.211C702.212 356.644 698.863 352.59 694.296 352.155C689.729 351.72 685.675 355.07 685.24 359.637C684.805 364.203 688.155 368.258 692.721 368.692Z" fill="#472948"/>
<path d="M629.879 371.735C630.529 376.275 628.39 380.337 625.103 380.808C621.815 381.279 618.623 377.98 617.973 373.439C617.323 368.899 619.462 364.836 622.749 364.365C626.038 363.895 629.229 367.193 629.879 371.735Z" fill="#472948"/>
<path d="M683.642 399.528C671.187 403.917 658.289 407.05 645.208 408.862C651.506 412.498 658.866 414.573 665.95 412.939C673.037 411.308 679.569 405.552 683.642 399.528Z" fill="#A64F5A"/>
<path d="M730.578 402.603C709.919 413.863 687.744 422.338 664.838 427.721C674.422 436.232 690.585 436.793 702.2 431.371C713.814 425.946 723.904 413.547 730.578 402.603Z" fill="white"/>
<path d="M721.85 431.031C713.038 439.545 701.045 444.689 688.802 445.202C694.527 448.536 702.227 449.589 708.397 447.18C714.57 444.768 719.898 437.364 721.85 431.031Z" fill="#A64F5A"/>
<path d="M790.337 402.859C789.936 407.066 786.201 410.151 781.995 409.751C777.788 409.35 774.702 405.615 775.103 401.409C775.503 397.202 779.238 394.117 783.445 394.517C787.651 394.918 790.737 398.653 790.337 402.859Z" fill="#E4E4E0"/>
<path d="M784.261 401.368C784.091 403.153 782.505 404.463 780.72 404.293C778.936 404.123 777.626 402.537 777.796 400.753C777.966 398.968 779.551 397.658 781.336 397.828C783.12 398.001 784.43 399.584 784.261 401.368Z" fill="white"/>
<path d="M734.23 374.62C735.783 379.726 728.956 386.325 718.982 389.355C709.008 392.388 699.664 390.705 698.112 385.599C696.56 380.493 703.386 373.894 713.36 370.863C723.334 367.833 732.678 369.514 734.23 374.62Z" fill="#A64F5A"/>
<path d="M634.815 396.51C635.36 401.818 631.812 406.533 626.888 407.04C621.965 407.547 617.53 403.654 616.985 398.346C616.437 393.037 619.987 388.322 624.909 387.815C629.835 387.309 634.269 391.201 634.815 396.51Z" fill="#A64F5A"/>
<path d="M622.252 498.695C591.065 499.961 564.079 520.784 554.942 550.628L529.222 634.641L622.865 643.557C635.078 515.286 622.252 498.695 622.252 498.695Z" fill="#EBA7AC"/>
<path d="M964.308 644.514L975.029 766.167C978.381 804.234 946.926 836.285 908.804 833.646L669.6 817.077L802.639 753.702L878.516 748.848L879.301 649.402L964.308 644.514Z" fill="#BD6C67"/>
<path d="M829.457 794.882C825.191 796.886 819.965 802.834 819.348 807.506C818.731 812.177 820.638 817.105 824.239 820.144C828.812 824.006 835.238 824.575 841.216 824.872C862.331 825.929 885.034 825.348 902.325 813.185C916.6 803.145 925.233 785.574 924.456 768.141C923.682 750.708 913.522 733.971 898.414 725.239L898.116 700.559C923.01 700.592 950.835 692.221 967.97 686.045L964.311 644.513L879.301 649.398L878.516 748.844L802.639 753.698L669.6 817.073L700.947 819.244L795.531 788.007C808.355 793.48 829.457 794.882 829.457 794.882Z" fill="#A64F5A"/>
<path d="M699.909 846.491C699.34 848.308 698.801 850.149 698.315 852.042C696.95 857.351 696.186 863.035 697.841 868.259C700.052 875.241 706.644 880.484 713.887 881.57C721.13 882.655 728.731 879.765 733.82 874.498C739.32 868.804 741.433 861.545 742.809 853.878C729.65 847.25 714.526 844.652 699.909 846.491Z" fill="#CEB49D"/>
<path d="M714.638 820.198C707.376 827.911 702.986 836.649 699.908 846.491C714.526 844.653 729.65 847.25 742.808 853.878C744.714 843.275 745.201 831.883 751.208 822.728L714.638 820.198Z" fill="#967F92"/>
<path d="M754.606 852.731C754.13 854.238 753.697 855.758 753.305 857.278C751.94 862.587 751.176 868.271 752.831 873.496C755.042 880.477 761.634 885.721 768.877 886.806C776.12 887.891 783.722 885.001 788.81 879.734C794.943 873.384 797.057 864.788 798.636 855.831C784.694 850.496 769.159 849.401 754.606 852.731Z" fill="#CEB49D"/>
<path d="M770.851 824.092C763.324 832.085 757.928 842.189 754.604 852.73C769.157 849.4 784.692 850.496 798.633 855.83C800.43 845.646 801.535 834.988 807.042 826.596L770.851 824.092Z" fill="#967F92"/>
<path d="M880.475 500.427L897.406 502.269C926.151 505.397 949.769 526.369 956.275 554.543L981.492 663.748C941.437 682.989 868.861 677.157 868.861 677.157L857.725 617.039C852.323 587.875 855.717 557.763 867.476 530.532L880.475 500.427Z" fill="#EBA7AC"/>
<path d="M918.905 762.819C919.65 746.173 913.83 725.27 899.791 716.298L891.395 720.957C899.27 731.589 901.924 747.24 897.08 759.551C892.234 771.863 880.757 781.327 867.745 783.738C864.309 784.374 860.828 784.535 857.331 784.53C865.076 793.089 869.213 804.899 868.432 816.415C878.302 814.506 887.703 811.113 895.873 805.265C909.421 795.569 918.162 779.462 918.905 762.819Z" fill="#967F92"/>
<path d="M857.33 784.53C852.924 784.523 848.49 784.242 844.083 784.239C836.179 784.237 827.831 785.352 821.582 790.191C815.333 795.03 812.194 804.574 816.593 811.14C820.864 817.517 829.711 818.497 837.383 818.612C847.688 818.767 858.306 818.373 868.431 816.415C869.212 804.899 865.075 793.089 857.33 784.53Z" fill="#645B79"/>
<path d="M905.83 746.51C904.909 742.775 902.148 739.641 898.704 737.961C900.113 745.255 899.702 752.889 897.08 759.551C896.728 760.445 896.332 761.32 895.912 762.182C897.281 761.978 898.627 761.507 899.812 760.809C904.586 757.997 907.158 751.891 905.83 746.51Z" fill="#645B79"/>
<path d="M901.959 782.542C900.763 784.877 900.21 787.53 898.748 789.706C895.928 793.906 890.407 795.436 887.021 799.19C884.074 802.458 883.407 807.326 884.739 811.484C888.634 809.804 892.371 807.769 895.874 805.263C906.07 797.966 913.541 787.035 916.932 774.979C911.062 774.259 904.684 777.217 901.959 782.542Z" fill="#645B79"/>
<path d="M888.656 787.333C889.585 787.215 890.451 786.815 891.266 786.356C893.69 784.99 903.47 776.119 897.818 773.748C893.388 771.89 887.105 778.262 885.651 781.657C884.952 783.289 884.709 785.44 886.03 786.627C886.728 787.251 887.73 787.451 888.656 787.333Z" fill="#645B79"/>
<path d="M509.545 730.334C506.494 732.215 503.604 734.328 501.02 736.82C495.382 742.256 491.269 749.671 491.271 757.503C491.272 765.335 496.071 773.353 503.537 775.717C508.635 777.333 514.268 776.236 519.111 773.97C523.955 771.703 528.187 768.344 532.506 765.193C534.843 763.486 537.242 761.865 539.654 760.267C534.657 746.548 523.246 735.334 509.545 730.334Z" fill="#CEB49D"/>
<path d="M609.151 647.043C592.774 663.079 581.608 684.357 577.72 706.945C558.362 709.667 538.688 716.434 520.865 724.466C516.995 726.211 513.155 728.11 509.543 730.336C523.245 735.337 534.656 746.551 539.655 760.267C560.484 746.459 583.976 736.673 608.471 731.722C616.456 704.872 615.246 674.38 609.151 647.043Z" fill="#967F92"/>
<path d="M609.152 647.043C592.775 663.079 581.61 684.357 577.722 706.945C571.437 707.83 565.123 709.175 558.843 710.817C558.463 714.96 559.648 719.259 562.279 722.495C564.689 725.457 568.216 727.436 571.969 728.113C576.636 728.956 580.315 732.546 581.758 737.064C581.962 737.702 582.104 738.358 582.28 739.006C590.827 735.973 599.581 733.521 608.475 731.722C616.458 704.872 615.247 674.38 609.152 647.043Z" fill="#645B79"/>
<path d="M501.51 640.471C498.616 644.559 495.41 648.462 493.131 652.921C490.852 657.381 489.552 662.577 490.784 667.431C492.297 673.402 497.431 677.908 503.086 680.349C513.124 684.68 525.08 683.392 534.718 678.232C544.356 673.073 551.788 664.367 556.765 654.634C561.743 644.9 564.415 634.141 566.139 623.346C566.697 619.858 567.124 616.115 565.592 612.933C563.152 607.869 556.854 606.19 551.289 605.407C544.564 604.461 537.774 603.997 530.982 604.013C526.237 604.024 518.943 602.507 517.019 607.515C512.54 619.179 508.845 630.11 501.51 640.471Z" fill="#472948"/>
<path d="M644.505 756.259C633.001 742.197 619.086 725.981 610.648 709.891C602.21 693.8 597.451 673.641 599.721 655.617C589.939 643.755 579.828 630.886 568.769 620.206C566.155 617.68 562.197 617.022 558.59 617.458C554.981 617.893 551.569 619.272 548.09 620.329C532.126 625.172 512.712 621.875 498.422 613.27C484.83 618.689 471.458 615.576 461.478 606.709C451.499 597.843 446.931 584.487 441.671 572.219C459.29 563.604 477.578 553.257 495.197 544.642C498.045 520.897 518.173 500.309 541.85 496.933C565.526 493.554 590.611 507.689 599.986 529.69C609.957 553.095 625.928 576.014 648.271 588.181C672.574 601.413 701.083 604.542 728.753 604.631C756.423 604.72 784.171 602.027 811.712 604.693C839.253 607.357 867.353 616.058 887.054 635.485C906.754 654.914 912.529 691.738 899.793 716.301L854.839 741.246L760.28 734.91L644.505 756.259Z" fill="#967F92"/>
<path d="M665.604 621.495C669.529 629.542 679.539 632.048 686.939 637.092C696.599 643.676 701.883 654.811 707.329 665.156C712.776 675.501 719.562 686.219 730.439 690.509C742.604 695.307 756.699 690.543 767.126 682.654C777.556 674.765 785.438 664.058 794.666 654.792C803.895 645.526 815.406 637.337 828.469 636.763C834.832 636.483 841.287 638.035 847.531 636.773C855.444 635.172 862.173 628.736 864.127 620.901C864.264 620.356 864.32 619.796 864.409 619.241C848.313 610.865 829.899 606.45 811.709 604.689C784.168 602.025 756.42 604.715 728.75 604.626C709.436 604.564 689.72 603.01 671.305 597.582C669.535 599.705 667.931 601.947 666.67 604.407C663.97 609.673 663.009 616.176 665.604 621.495Z" fill="#645B79"/>
<path d="M665.742 656.12C664.776 659.634 665.635 663.456 667.366 666.664C669.097 669.87 671.637 672.558 674.219 675.131C677.318 678.219 681.029 681.402 685.401 681.234C689.554 681.073 693.124 677.659 694.288 673.668C695.451 669.68 694.54 665.315 692.665 661.605C688.367 653.093 670.051 640.457 665.742 656.12Z" fill="#645B79"/>
<path d="M900.341 655.643C901.826 665.079 899.855 675.097 894.489 683.024C886.551 694.75 870.25 702.672 856.248 700.575C861.806 693.915 868.037 686.209 873.597 679.547C851.683 682.506 830.56 690.018 810.984 700.301C813.272 692.855 815.364 683.376 817.653 675.927C792.903 686.69 769.547 705.733 754.759 728.31L678.547 740.575C668.595 742.176 658.561 737.505 653.701 728.675C649.761 721.516 647.956 713.229 649.499 705.535L611.188 710.845C619.668 726.619 633.227 742.473 644.503 756.256L760.28 734.905L854.839 741.241L899.794 716.297C908.902 698.727 908.496 674.907 900.341 655.643Z" fill="#645B79"/>
<path d="M445.914 582.42C452.721 583.068 458.592 579.892 459.027 575.325C459.462 570.758 454.295 566.531 447.488 565.883C440.681 565.235 434.81 568.411 434.375 572.978C433.94 577.544 439.106 581.772 445.914 582.42Z" fill="#472948"/>
<path d="M534.102 549.863C538.834 550.313 543.036 546.842 543.487 542.109C543.937 537.377 540.466 533.175 535.733 532.724C531.001 532.274 526.799 535.745 526.348 540.478C525.898 545.21 529.369 549.412 534.102 549.863Z" fill="#472948"/>
<path d="M498.42 613.265C510.54 607.784 529.876 594.256 529.876 594.256C524.415 606.477 511.508 615.278 498.42 613.265Z" fill="#472948"/>
<path d="M569.452 543.281C569.673 554.774 571.852 566.354 569.907 577.682C567.226 593.296 557.136 606.411 548.856 619.919C540.576 633.425 533.714 649.624 538.334 664.778C542.733 679.207 557.5 689.204 572.569 689.887C587.641 690.567 602.387 682.868 612.162 671.375C621.937 659.885 627.093 644.985 628.784 629.993C630.479 615.003 628.909 599.829 626.488 584.938C624.111 570.315 620.842 555.63 614.012 542.483C608.376 531.635 598.236 517.977 586.004 514.012C571.34 509.259 569.263 533.59 569.452 543.281Z" fill="#59395B"/>
<path d="M896.815 725.068C899.216 722.717 901.654 719.102 899.797 716.3C898.834 714.844 896.949 714.223 895.207 714.324C893.465 714.423 891.823 715.128 890.229 715.835C880.451 720.173 870.637 724.731 861.313 730.029C859.424 731.167 857.521 732.284 855.594 733.358C857.464 732.194 859.394 731.118 861.313 730.029C873.072 722.938 884.105 714.648 894.172 705.312C895.689 703.905 897.218 702.43 898.116 700.564C899.015 698.698 899.171 696.34 897.986 694.645C896.79 692.934 894.499 692.274 892.421 692.481C890.345 692.689 888.418 693.617 886.54 694.528C873.485 700.879 859.918 706.545 846.864 712.896C857.25 704.725 867.636 696.553 878.022 688.383C881.209 685.876 884.782 682.275 883.166 678.35C882.413 676.518 880.63 675.291 878.689 674.897C875.182 674.187 871.934 675.671 868.859 677.157C848.434 687.024 828.423 697.622 809.878 710.685L820.908 687.105C822.718 683.239 823.963 679.132 824.608 674.912C825.195 671.061 820.695 668.497 817.711 671.004C795.988 689.263 775.855 711.306 760.289 734.911L584.544 767.322L499.468 783.013C496.681 802.143 502.043 821.687 514.483 836.746C533.744 860.06 565.97 868.065 593.9 856.473L789.46 775.307C822.59 778.461 858.309 770.859 885.105 751.119C886.619 750.004 888.164 748.794 888.992 747.104C889.82 745.414 889.697 743.109 888.219 741.944C886.539 740.621 884.105 741.307 882.1 742.048C875.067 744.655 866.279 746.689 859.244 749.293C873.228 743.858 886.096 735.565 896.815 725.068Z" fill="#BD6C67"/>
<path d="M570.32 775.381C562.258 771.175 553.144 769.052 544.054 769.136C543.353 770.236 542.658 771.342 542.014 772.473C537.139 781.005 533.704 791.128 536.282 800.61C538.296 808.024 544.081 814.307 551.304 816.924C558.527 819.544 566.994 818.428 573.293 814.028C580.879 808.729 584.632 799.792 589.227 791.65C584.232 784.909 577.758 779.261 570.32 775.381Z" fill="#CEB49D"/>
<path d="M649.505 705.537C639.656 693.489 624.15 687.606 609.224 683.207C604.138 697.98 602.207 713.833 603.599 729.396C579.802 733.287 557.086 748.714 544.053 769.133C553.142 769.052 562.257 771.174 570.319 775.378C577.757 779.258 584.23 784.908 589.226 791.648C589.851 790.542 590.486 789.45 591.153 788.387C598.906 776.011 612.087 766.774 627.054 761.11C636.741 757.444 643.599 748.627 644.121 738.282C644.677 727.24 646.623 716.254 649.505 705.537Z" fill="#967F92"/>
</g>
</g>
<defs>
<radialGradient id="paint0_radial_265_2" cx="0" cy="0" r="1" gradientUnits="userSpaceOnUse" gradientTransform="translate(695 608) rotate(65.1673) scale(798.865 944.414)">
<stop offset="0.317708" stop-color="#425172"/>
<stop offset="1" stop-color="#1F283B"/>
</radialGradient>
<clipPath id="clip0_265_2">
<rect width="1437" height="1064" fill="white" transform="translate(100.848) rotate(5.43873)"/>
</clipPath>
</defs>
</svg>
