<svg width="1366" height="667" viewBox="0 0 1366 667" fill="none" xmlns="http://www.w3.org/2000/svg">
<rect width="1366" height="667" fill="#1E1E1E"/>
<g clip-path="url(#clip0_0_1)">
<rect width="1366" height="667" fill="white"/>
<rect width="1366" height="667" fill="#FFF3D3"/>
<path d="M1213.56 407.152C1212.33 407.822 1211.95 408.524 1211.96 410.31L1211.97 410.779L1212.01 411.577C1212.02 411.674 1212.03 411.771 1212.03 411.869C1212.07 412.367 1211.95 412.812 1211.65 413.438L1211.35 414.034C1210.84 415.055 1210.67 415.731 1210.92 416.598C1211 416.954 1211.24 417.437 1211.5 417.807C1212.51 419.271 1214.41 419.798 1215.92 418.985L1216.14 418.857C1216.25 418.791 1216.35 418.723 1216.45 418.648L1216.66 418.484L1216.76 418.393L1216.99 418.182L1217.12 418.061L1217.55 417.624L1218.12 417.026L1218.47 416.677C1218.88 416.278 1219.22 416.007 1219.54 415.833C1219.86 415.658 1220.29 415.514 1220.87 415.375L1221.38 415.262L1222.24 415.084L1222.88 414.944L1223.22 414.858C1223.33 414.83 1223.42 414.803 1223.52 414.774L1223.77 414.685C1223.9 414.639 1224.01 414.59 1224.13 414.535L1224.36 414.418C1225.86 413.605 1226.2 411.862 1225.19 410.392C1224.93 410.022 1224.56 409.614 1224.22 409.364C1223.56 408.855 1222.85 408.646 1221.73 408.526L1221.38 408.492L1220.66 408.43C1219.77 408.347 1219.22 408.222 1218.72 407.956L1218.18 407.672L1217.68 407.425C1215.72 406.466 1214.91 406.424 1213.56 407.152Z" fill="#425172"/>
<path d="M1219.07 400.6L1219.04 400.615C1217.91 401.251 1217.47 402.733 1217.81 404.264C1218.22 406.155 1219.7 407.67 1221.41 407.48C1221.71 407.445 1222 407.354 1222.25 407.215C1223.41 406.591 1223.86 405.093 1223.52 403.548C1223.1 401.66 1221.61 400.146 1219.92 400.334C1219.62 400.369 1219.33 400.459 1219.07 400.6Z" fill="#425172"/>
<path d="M1206.59 402.585C1206.49 402.642 1206.42 402.681 1206.35 402.735L1206.27 402.796C1204.95 403.753 1205.21 405.739 1206.59 407.213C1207.88 408.572 1209.83 409.174 1211.19 408.434L1211.37 408.335C1211.39 408.318 1211.42 408.301 1211.44 408.284L1211.52 408.223C1212.83 407.266 1212.58 405.28 1211.19 403.807C1209.9 402.445 1207.96 401.844 1206.59 402.585Z" fill="#425172"/>
<path d="M1212.17 399.567C1210.8 400.308 1210.51 402.116 1211.29 403.749C1212.14 405.517 1214.01 406.627 1215.64 406.003C1215.75 405.962 1215.84 405.919 1215.93 405.87C1217.24 405.165 1217.56 403.482 1216.91 401.908L1216.81 401.687C1215.97 399.919 1214.09 398.81 1212.46 399.433C1212.36 399.472 1212.26 399.517 1212.17 399.567Z" fill="#425172"/>
<path d="M1204.47 408.498C1204.21 408.637 1203.99 408.821 1203.82 409.042C1202.85 410.299 1203.69 412.163 1205.4 413.352C1206.79 414.326 1208.5 414.658 1209.65 414.033C1209.91 413.894 1210.13 413.71 1210.3 413.489C1211.27 412.231 1210.43 410.368 1208.73 409.179C1207.33 408.205 1205.63 407.873 1204.47 408.498Z" fill="#425172"/>
<path d="M1110.78 590.736C1109.34 590.653 1108.58 591.038 1107.43 592.503L1107.13 592.892L1106.65 593.565C1106.59 593.648 1106.53 593.731 1106.47 593.814C1106.18 594.239 1105.79 594.542 1105.14 594.901L1104.51 595.236C1103.43 595.813 1102.86 596.281 1102.49 597.113C1102.33 597.448 1102.21 597.966 1102.19 598.399C1102.06 600.111 1103.28 601.513 1105.03 601.615L1105.3 601.624C1105.43 601.625 1105.56 601.621 1105.69 601.612L1105.96 601.584L1106.11 601.564L1106.44 601.508L1106.62 601.473L1107.25 601.336L1108.11 601.138L1108.62 601.029C1109.21 600.91 1109.66 600.863 1110.04 600.884C1110.42 600.906 1110.86 601.006 1111.43 601.191L1111.92 601.358L1112.74 601.651L1113.35 601.861L1113.69 601.966C1113.79 601.996 1113.89 602.023 1113.98 602.046L1114.25 602.105C1114.38 602.13 1114.51 602.149 1114.64 602.162L1114.9 602.184C1116.66 602.285 1118.07 601.034 1118.19 599.316C1118.23 598.883 1118.18 598.359 1118.06 597.978C1117.86 597.228 1117.41 596.694 1116.58 596.027L1116.31 595.818L1115.76 595.399C1115.09 594.881 1114.72 594.497 1114.48 594.023L1114.22 593.514L1113.98 593.059C1112.99 591.274 1112.36 590.827 1110.78 590.736Z" fill="#425172"/>
<path d="M1119.54 588.183L1119.51 588.182C1118.17 588.125 1116.85 589.115 1116.13 590.539C1115.24 592.297 1115.47 594.292 1116.99 595.004C1117.26 595.131 1117.55 595.203 1117.85 595.22C1119.2 595.298 1120.54 594.302 1121.27 592.865C1122.15 591.108 1121.92 589.111 1120.41 588.401C1120.14 588.275 1119.84 588.201 1119.54 588.183Z" fill="#425172"/>
<path d="M1108.04 583.444C1107.92 583.437 1107.84 583.435 1107.75 583.442L1107.64 583.453C1105.95 583.565 1104.87 585.32 1105.05 587.232C1105.22 588.999 1106.42 590.484 1108.02 590.576L1108.22 590.583C1108.25 590.582 1108.28 590.581 1108.31 590.578L1108.42 590.568C1110.11 590.456 1111.19 588.701 1111.01 586.789C1110.85 585.019 1109.64 583.536 1108.04 583.444Z" fill="#425172"/>
<path d="M1114.56 583.82C1112.96 583.728 1111.56 585.061 1111.14 586.795C1110.68 588.671 1111.49 590.535 1113.23 590.857C1113.34 590.876 1113.45 590.89 1113.55 590.896C1115.08 590.984 1116.44 589.773 1116.92 588.152L1116.99 587.921C1117.44 586.045 1116.63 584.181 1114.89 583.859C1114.78 583.839 1114.67 583.826 1114.56 583.82Z" fill="#425172"/>
<path d="M1102.47 587.2C1102.17 587.182 1101.87 587.22 1101.59 587.313C1099.98 587.847 1099.46 589.801 1100.08 591.644C1100.59 593.152 1101.77 594.293 1103.12 594.371C1103.42 594.388 1103.72 594.35 1104.01 594.258C1105.62 593.724 1106.14 591.769 1105.51 589.927C1105 588.419 1103.82 587.277 1102.47 587.2Z" fill="#425172"/>
<path d="M903.785 522.736C902.338 522.653 901.579 523.038 900.428 524.503L900.131 524.892L899.647 525.565C899.588 525.648 899.531 525.731 899.473 525.814C899.178 526.239 898.791 526.542 898.139 526.901L897.509 527.236C896.432 527.813 895.856 528.281 895.492 529.113C895.331 529.448 895.213 529.966 895.185 530.399C895.059 532.111 896.276 533.513 898.032 533.615L898.298 533.624C898.429 533.625 898.556 533.621 898.689 533.612L898.964 533.584L899.111 533.564L899.435 533.508L899.616 533.473L900.254 533.336L901.108 533.138L901.617 533.029C902.21 532.91 902.664 532.863 903.04 532.884C903.418 532.906 903.861 533.006 904.431 533.191L904.919 533.358L905.739 533.651L906.35 533.861L906.686 533.966C906.791 533.996 906.888 534.023 906.981 534.046L907.249 534.105C907.38 534.13 907.505 534.149 907.635 534.162L907.9 534.184C909.656 534.285 911.067 533.034 911.193 531.316C911.225 530.883 911.183 530.359 911.064 529.978C910.859 529.228 910.412 528.694 909.577 528.027L909.309 527.818L908.759 527.399C908.09 526.881 907.721 526.497 907.48 526.023L907.22 525.514L906.976 525.059C905.994 523.274 905.358 522.827 903.785 522.736Z" fill="#425172"/>
<path d="M912.538 520.183L912.505 520.182C911.167 520.125 909.849 521.115 909.131 522.539C908.242 524.297 908.472 526.292 909.987 527.004C910.259 527.131 910.552 527.203 910.853 527.22C912.203 527.298 913.541 526.302 914.266 524.865C915.15 523.108 914.916 521.111 913.409 520.401C913.138 520.275 912.841 520.201 912.538 520.183Z" fill="#425172"/>
<path d="M901.044 515.444C900.921 515.437 900.841 515.435 900.747 515.442L900.644 515.453C898.949 515.565 897.867 517.32 898.045 519.232C898.215 520.999 899.417 522.484 901.015 522.576L901.221 522.583C901.252 522.582 901.283 522.581 901.313 522.578L901.416 522.568C903.112 522.456 904.192 520.701 904.014 518.789C903.846 517.019 902.645 515.536 901.044 515.444Z" fill="#425172"/>
<path d="M907.564 515.82C905.965 515.728 904.559 517.061 904.136 518.795C903.679 520.671 904.493 522.535 906.231 522.857C906.343 522.876 906.449 522.89 906.554 522.896C908.078 522.984 909.437 521.773 909.923 520.152L909.985 519.921C910.442 518.045 909.628 516.181 907.89 515.859C907.782 515.839 907.674 515.826 907.564 515.82Z" fill="#425172"/>
<path d="M895.475 519.2C895.174 519.182 894.874 519.22 894.589 519.313C892.98 519.847 892.461 521.801 893.084 523.644C893.593 525.152 894.773 526.293 896.122 526.371C896.423 526.388 896.723 526.35 897.008 526.258C898.617 525.724 899.136 523.769 898.513 521.927C898.004 520.419 896.824 519.277 895.475 519.2Z" fill="#425172"/>
<path d="M983.152 624.645C982.023 623.854 981.242 623.856 979.666 624.716L979.255 624.948L978.567 625.364C978.483 625.416 978.4 625.468 978.317 625.521C977.891 625.789 977.445 625.894 976.762 625.923L976.106 625.94C974.983 625.972 974.312 626.143 973.651 626.774C973.373 627.02 973.049 627.466 972.834 627.874C971.975 629.476 972.334 631.436 973.704 632.396L973.914 632.536C974.019 632.601 974.123 632.66 974.234 632.716L974.468 632.824L974.595 632.876L974.881 632.981L975.042 633.036L975.616 633.216L976.392 633.442L976.851 633.586C977.38 633.761 977.767 633.939 978.061 634.144C978.355 634.35 978.667 634.665 979.045 635.124L979.365 635.526L979.895 636.214L980.294 636.718L980.518 636.985C980.589 637.065 980.655 637.139 980.72 637.207L980.91 637.397C981.004 637.485 981.097 637.564 981.195 637.641L981.399 637.792C982.769 638.752 984.459 638.229 985.321 636.621C985.538 636.215 985.736 635.685 985.809 635.256C985.975 634.427 985.852 633.689 985.475 632.631L985.352 632.296L985.094 631.619C984.784 630.787 984.657 630.233 984.673 629.653L984.689 629.031L984.694 628.469C984.693 626.252 984.379 625.506 983.152 624.645Z" fill="#425172"/>
<path d="M991.331 626.46L991.305 626.442C990.253 625.73 988.753 626.045 987.544 627.077C986.051 628.349 985.353 630.402 986.257 631.837C986.421 632.094 986.625 632.308 986.859 632.472C987.912 633.21 989.43 632.899 990.65 631.858C992.14 630.584 992.835 628.528 991.936 627.098C991.774 626.843 991.567 626.625 991.331 626.46Z" fill="#425172"/>
<path d="M984.172 616.212C984.076 616.145 984.013 616.103 983.933 616.065L983.846 616.024C982.431 615.302 980.784 616.477 980.081 618.422C979.435 620.224 979.745 622.257 980.992 623.131L981.154 623.238C981.18 623.253 981.205 623.266 981.231 623.279L981.318 623.319C982.734 624.042 984.38 622.867 985.083 620.921C985.731 619.119 985.42 617.088 984.172 616.212Z" fill="#425172"/>
<path d="M989.257 619.778C988.009 618.903 986.287 619.509 985.179 620.987C983.98 622.586 983.811 624.798 985.069 625.963C985.15 626.037 985.229 626.102 985.312 626.16C986.5 626.993 988.13 626.483 989.239 625.146L989.391 624.952C990.59 623.352 990.759 621.141 989.501 619.975C989.424 619.903 989.342 619.837 989.257 619.778Z" fill="#425172"/>
<path d="M978.024 617.13C977.79 616.965 977.532 616.855 977.261 616.805C975.729 616.534 974.446 618.179 974.132 620.276C973.875 621.992 974.32 623.68 975.372 624.418C975.606 624.582 975.865 624.693 976.136 624.743C977.668 625.014 978.951 623.369 979.264 621.271C979.522 619.556 979.077 617.868 978.024 617.13Z" fill="#425172"/>
<path d="M1246.53 585.828C1245.46 586.695 1245.25 587.447 1245.64 589.198L1245.75 589.658L1245.96 590.434C1245.99 590.528 1246.02 590.623 1246.04 590.717C1246.19 591.201 1246.16 591.658 1246 592.323L1245.84 592.958C1245.56 594.047 1245.54 594.739 1245.97 595.548C1246.13 595.883 1246.47 596.317 1246.8 596.635C1248.11 597.902 1250.09 598.096 1251.39 597.043L1251.58 596.879C1251.67 596.797 1251.76 596.713 1251.84 596.621L1252.01 596.426L1252.1 596.318L1252.28 596.072L1252.37 595.932L1252.7 595.43L1253.13 594.746L1253.4 594.345C1253.71 593.884 1253.99 593.56 1254.27 593.335C1254.55 593.109 1254.93 592.895 1255.48 592.658L1255.95 592.461L1256.76 592.141L1257.35 591.895L1257.67 591.753C1257.77 591.708 1257.86 591.664 1257.94 591.62L1258.18 591.49C1258.29 591.424 1258.39 591.356 1258.49 591.283L1258.69 591.128C1259.99 590.075 1259.95 588.307 1258.64 587.036C1258.31 586.715 1257.85 586.379 1257.46 586.191C1256.71 585.803 1255.97 585.718 1254.84 585.79L1254.49 585.817L1253.77 585.878C1252.88 585.947 1252.31 585.917 1251.76 585.742L1251.17 585.556L1250.63 585.397C1248.5 584.788 1247.69 584.885 1246.53 585.828Z" fill="#425172"/>
<path d="M1250.52 578.463L1250.49 578.483C1249.52 579.299 1249.41 580.827 1250.07 582.273C1250.89 584.059 1252.67 585.295 1254.3 584.82C1254.59 584.733 1254.85 584.596 1255.07 584.416C1256.07 583.607 1256.19 582.061 1255.52 580.602C1254.71 578.819 1252.92 577.586 1251.3 578.057C1251.01 578.143 1250.74 578.281 1250.52 578.463Z" fill="#425172"/>
<path d="M1238.7 582.528C1238.61 582.602 1238.55 582.651 1238.49 582.717L1238.43 582.79C1237.35 583.952 1238.02 585.859 1239.7 587.069C1241.26 588.186 1243.3 588.446 1244.48 587.488L1244.63 587.361C1244.65 587.341 1244.67 587.32 1244.69 587.299L1244.75 587.226C1245.83 586.064 1245.16 584.158 1243.48 582.947C1241.92 581.828 1239.88 581.569 1238.7 582.528Z" fill="#425172"/>
<path d="M1243.52 578.62C1242.34 579.579 1242.45 581.401 1243.57 582.873C1244.78 584.465 1246.86 585.236 1248.32 584.347C1248.42 584.289 1248.5 584.231 1248.58 584.168C1249.7 583.254 1249.66 581.547 1248.68 580.113L1248.53 579.913C1247.33 578.321 1245.24 577.55 1243.78 578.439C1243.69 578.494 1243.6 578.554 1243.52 578.62Z" fill="#425172"/>
<path d="M1237.89 588.691C1237.67 588.871 1237.5 589.089 1237.37 589.336C1236.69 590.734 1237.92 592.42 1239.85 593.298C1241.43 594.017 1243.18 594.054 1244.18 593.245C1244.4 593.065 1244.58 592.847 1244.7 592.6C1245.38 591.202 1244.15 589.516 1242.22 588.638C1240.64 587.919 1238.89 587.882 1237.89 588.691Z" fill="#425172"/>
<path d="M1315.25 375.029C1314.31 376.003 1314.2 376.772 1314.83 378.469L1315 378.913L1315.31 379.661C1315.35 379.752 1315.39 379.843 1315.43 379.934C1315.64 380.399 1315.68 380.855 1315.61 381.533L1315.53 382.181C1315.4 383.291 1315.48 383.98 1316.01 384.738C1316.21 385.054 1316.61 385.449 1316.98 385.73C1318.45 386.849 1320.44 386.831 1321.59 385.648L1321.76 385.466C1321.84 385.374 1321.91 385.281 1321.99 385.182L1322.13 384.97L1322.2 384.854L1322.34 384.591L1322.42 384.441L1322.68 383.907L1323.01 383.183L1323.22 382.757C1323.47 382.266 1323.7 381.915 1323.95 381.662C1324.19 381.408 1324.55 381.154 1325.06 380.862L1325.51 380.616L1326.26 380.212L1326.82 379.906L1327.12 379.731C1327.21 379.675 1327.29 379.623 1327.37 379.571L1327.58 379.416C1327.68 379.339 1327.77 379.261 1327.86 379.177L1328.04 379.002C1329.19 377.819 1328.91 376.068 1327.44 374.945C1327.07 374.662 1326.57 374.376 1326.16 374.231C1325.36 373.925 1324.61 373.92 1323.51 374.11L1323.16 374.174L1322.45 374.312C1321.58 374.474 1321.01 374.505 1320.44 374.389L1319.82 374.267L1319.27 374.167C1317.07 373.788 1316.28 373.969 1315.25 375.029Z" fill="#425172"/>
<path d="M1318.22 367.294L1318.2 367.316C1317.34 368.229 1317.44 369.758 1318.29 371.124C1319.34 372.811 1321.28 373.849 1322.83 373.205C1323.11 373.088 1323.35 372.924 1323.55 372.721C1324.43 371.812 1324.34 370.265 1323.48 368.887C1322.43 367.204 1320.49 366.169 1318.94 366.808C1318.66 366.924 1318.42 367.09 1318.22 367.294Z" fill="#425172"/>
<path d="M1307.04 372.582C1306.96 372.665 1306.9 372.72 1306.86 372.791L1306.8 372.871C1305.88 374.139 1306.81 375.96 1308.64 376.984C1310.34 377.928 1312.4 377.971 1313.44 376.894L1313.57 376.753C1313.59 376.73 1313.61 376.707 1313.62 376.684L1313.68 376.605C1314.6 375.337 1313.67 373.516 1311.84 372.492C1310.14 371.545 1308.08 371.504 1307.04 372.582Z" fill="#425172"/>
<path d="M1311.3 368.191C1310.25 369.268 1310.61 371.066 1311.91 372.409C1313.33 373.862 1315.5 374.406 1316.83 373.369C1316.92 373.301 1317 373.234 1317.06 373.163C1318.06 372.137 1317.79 370.447 1316.62 369.127L1316.45 368.944C1315.03 367.491 1312.86 366.947 1311.53 367.984C1311.45 368.048 1311.37 368.117 1311.3 368.191Z" fill="#425172"/>
<path d="M1307.07 378.786C1306.87 378.988 1306.72 379.223 1306.64 379.481C1306.15 380.942 1307.6 382.485 1309.63 383.153C1311.3 383.699 1313.04 383.551 1313.92 382.642C1314.11 382.44 1314.26 382.204 1314.35 381.947C1314.84 380.486 1313.39 378.942 1311.35 378.275C1309.69 377.728 1307.95 377.877 1307.07 378.786Z" fill="#425172"/>
<path d="M91.7848 478.736C90.3376 478.653 89.5793 479.038 88.428 480.503L88.1309 480.892L87.6466 481.565C87.5885 481.648 87.5306 481.731 87.4731 481.814C87.1776 482.239 86.791 482.542 86.1392 482.901L85.509 483.236C84.4317 483.813 83.8557 484.281 83.4919 485.113C83.3308 485.448 83.2135 485.966 83.185 486.399C83.0595 488.111 84.2757 489.513 86.0322 489.615L86.2979 489.624C86.4289 489.625 86.5558 489.621 86.6886 489.612L86.9637 489.584L87.1105 489.564L87.435 489.508L87.616 489.473L88.2536 489.336L89.1083 489.138L89.6173 489.029C90.2095 488.91 90.6644 488.863 91.0405 488.884C91.4177 488.906 91.8607 489.006 92.4307 489.191L92.9195 489.358L93.7391 489.651L94.3502 489.861L94.6861 489.966C94.7906 489.996 94.8878 490.023 94.9808 490.046L95.2495 490.105C95.3798 490.13 95.5051 490.149 95.6351 490.162L95.9 490.184C97.6565 490.285 99.0673 489.034 99.1933 487.316C99.2251 486.883 99.1831 486.359 99.0635 485.978C98.8587 485.228 98.4123 484.694 97.577 484.027L97.3094 483.818L96.7588 483.399C96.0898 482.881 95.7205 482.497 95.4801 482.023L95.2201 481.514L94.976 481.059C93.9938 479.274 93.3582 478.827 91.7848 478.736Z" fill="#425172"/>
<path d="M100.538 476.183L100.505 476.182C99.1674 476.125 97.8495 477.115 97.1306 478.539C96.242 480.297 96.4722 482.292 97.9868 483.004C98.2593 483.131 98.5525 483.203 98.8529 483.22C100.203 483.298 101.541 482.302 102.266 480.865C103.15 479.108 102.916 477.111 101.409 476.401C101.138 476.275 100.841 476.201 100.538 476.183Z" fill="#425172"/>
<path d="M89.044 471.444C88.9212 471.437 88.841 471.435 88.7468 471.442L88.6437 471.453C86.9486 471.565 85.8675 473.32 86.0455 475.232C86.2153 476.999 87.4167 478.484 89.0153 478.576L89.2207 478.583C89.2517 478.582 89.2826 478.581 89.3135 478.578L89.4156 478.568C91.1117 478.456 92.1917 476.701 92.0138 474.789C91.8463 473.019 90.6448 471.536 89.044 471.444Z" fill="#425172"/>
<path d="M95.5645 471.82C93.9648 471.728 92.5589 473.061 92.1356 474.795C91.6786 476.671 92.4932 478.535 94.2314 478.857C94.3433 478.876 94.4492 478.89 94.5544 478.896C96.0784 478.984 97.4368 477.773 97.9234 476.152L97.9855 475.921C98.4424 474.045 97.6278 472.181 95.8897 471.859C95.7824 471.839 95.6738 471.826 95.5645 471.82Z" fill="#425172"/>
<path d="M83.4747 475.2C83.1742 475.182 82.8742 475.22 82.5888 475.313C80.9795 475.847 80.4607 477.801 81.0842 479.644C81.5935 481.152 82.7727 482.293 84.1224 482.371C84.4228 482.388 84.7229 482.35 85.0082 482.258C86.6175 481.724 87.1363 479.769 86.5129 477.927C86.0036 476.419 84.8244 475.277 83.4747 475.2Z" fill="#425172"/>
<path d="M214.785 507.736C213.338 507.653 212.579 508.038 211.428 509.503L211.131 509.892L210.647 510.565C210.588 510.648 210.531 510.731 210.473 510.814C210.178 511.239 209.791 511.542 209.139 511.901L208.509 512.236C207.432 512.813 206.856 513.281 206.492 514.113C206.331 514.448 206.214 514.966 206.185 515.399C206.059 517.111 207.276 518.513 209.032 518.615L209.298 518.624C209.429 518.625 209.556 518.621 209.689 518.612L209.964 518.584L210.111 518.564L210.435 518.508L210.616 518.473L211.254 518.336L212.108 518.138L212.617 518.029C213.21 517.91 213.664 517.863 214.04 517.884C214.418 517.906 214.861 518.006 215.431 518.191L215.919 518.358L216.739 518.651L217.35 518.861L217.686 518.966C217.791 518.996 217.888 519.023 217.981 519.046L218.249 519.105C218.38 519.13 218.505 519.149 218.635 519.162L218.9 519.184C220.656 519.285 222.067 518.034 222.193 516.316C222.225 515.883 222.183 515.359 222.064 514.978C221.859 514.228 221.412 513.694 220.577 513.027L220.309 512.818L219.759 512.399C219.09 511.881 218.721 511.497 218.48 511.023L218.22 510.514L217.976 510.059C216.994 508.274 216.358 507.827 214.785 507.736Z" fill="#425172"/>
<path d="M223.538 505.183L223.505 505.182C222.167 505.125 220.849 506.115 220.131 507.539C219.242 509.297 219.472 511.292 220.987 512.004C221.259 512.131 221.552 512.203 221.853 512.22C223.203 512.298 224.541 511.302 225.266 509.865C226.15 508.108 225.916 506.111 224.409 505.401C224.138 505.275 223.841 505.201 223.538 505.183Z" fill="#425172"/>
<path d="M212.044 500.444C211.921 500.437 211.841 500.435 211.747 500.442L211.644 500.453C209.949 500.565 208.867 502.32 209.045 504.232C209.215 505.999 210.417 507.484 212.015 507.576L212.221 507.583C212.252 507.582 212.283 507.581 212.313 507.578L212.416 507.568C214.112 507.456 215.192 505.701 215.014 503.789C214.846 502.019 213.645 500.536 212.044 500.444Z" fill="#425172"/>
<path d="M218.564 500.82C216.965 500.728 215.559 502.061 215.136 503.795C214.679 505.671 215.493 507.535 217.231 507.857C217.343 507.876 217.449 507.89 217.554 507.896C219.078 507.984 220.437 506.773 220.923 505.152L220.985 504.921C221.442 503.045 220.628 501.181 218.89 500.859C218.782 500.839 218.674 500.826 218.564 500.82Z" fill="#425172"/>
<path d="M206.475 504.2C206.174 504.182 205.874 504.22 205.589 504.313C203.98 504.847 203.461 506.801 204.084 508.644C204.593 510.152 205.773 511.293 207.122 511.371C207.423 511.388 207.723 511.35 208.008 511.258C209.618 510.724 210.136 508.769 209.513 506.927C209.004 505.419 207.824 504.277 206.475 504.2Z" fill="#425172"/>
<path d="M580.956 145.041C580.362 146.363 580.451 147.209 581.408 148.807L581.665 149.224L582.121 149.917C582.177 150 582.234 150.084 582.291 150.167C582.583 150.595 582.728 151.065 582.83 151.802L582.918 152.51C583.073 153.722 583.303 154.427 583.95 155.064C584.206 155.334 584.648 155.629 585.043 155.81C586.597 156.539 588.341 155.904 589.063 154.299L589.166 154.055C589.215 153.933 589.256 153.813 589.295 153.685L589.367 153.418L589.4 153.274L589.464 152.951L589.496 152.769L589.596 152.125L589.716 151.256L589.796 150.741C589.897 150.146 590.015 149.704 590.17 149.361C590.325 149.016 590.576 148.638 590.952 148.172L591.283 147.775L591.85 147.114L592.264 146.618L592.482 146.342C592.548 146.255 592.608 146.174 592.662 146.095L592.813 145.865C592.883 145.753 592.945 145.642 593.004 145.526L593.119 145.286C593.841 143.681 593.176 141.917 591.617 141.186C591.223 141.001 590.719 140.853 590.32 140.829C589.547 140.752 588.888 140.978 587.967 141.52L587.676 141.696L587.088 142.06C586.366 142.5 585.875 142.708 585.346 142.763L584.778 142.824L584.266 142.89C582.248 143.17 581.603 143.604 580.956 145.041Z" fill="#425172"/>
<path d="M581.699 135.953L581.685 135.983C581.154 137.212 581.608 138.797 582.682 139.977C584.006 141.435 585.952 141.933 587.158 140.772C587.374 140.563 587.546 140.315 587.669 140.04C588.224 138.808 587.772 137.202 586.688 136.011C585.363 134.558 583.414 134.064 582.212 135.218C581.998 135.425 581.823 135.676 581.699 135.953Z" fill="#425172"/>
<path d="M573.167 144.996C573.116 145.109 573.085 145.183 573.059 145.273L573.032 145.373C572.531 146.997 573.784 148.633 575.633 149.15C577.345 149.623 579.161 149.031 579.818 147.571L579.898 147.381C579.908 147.352 579.918 147.323 579.926 147.293L579.953 147.194C580.454 145.569 579.201 143.934 577.351 143.417C575.639 142.942 573.825 143.534 573.167 144.996Z" fill="#425172"/>
<path d="M575.847 139.04C575.189 140.502 575.933 142.291 577.401 143.306C578.99 144.403 581.022 144.307 581.943 142.799C582.001 142.701 582.052 142.607 582.095 142.511C582.721 141.119 582.075 139.418 580.735 138.384L580.542 138.244C578.952 137.147 576.92 137.242 575.999 138.751C575.942 138.844 575.891 138.94 575.847 139.04Z" fill="#425172"/>
<path d="M574.685 151.54C574.562 151.814 574.49 152.108 574.474 152.407C574.398 154.101 576.038 155.284 577.982 155.36C579.573 155.423 581.06 154.729 581.615 153.496C581.738 153.222 581.81 152.928 581.825 152.628C581.901 150.934 580.261 149.752 578.317 149.676C576.727 149.613 575.24 150.307 574.685 151.54Z" fill="#425172"/>
<path d="M740.956 221.041C740.362 222.363 740.451 223.209 741.408 224.807L741.665 225.224L742.121 225.917C742.177 226 742.234 226.084 742.291 226.167C742.583 226.595 742.728 227.065 742.83 227.802L742.918 228.51C743.073 229.722 743.303 230.427 743.95 231.064C744.206 231.334 744.648 231.629 745.043 231.81C746.597 232.539 748.341 231.904 749.063 230.299L749.166 230.055C749.215 229.933 749.256 229.813 749.295 229.685L749.367 229.418L749.4 229.274L749.464 228.951L749.496 228.769L749.596 228.125L749.716 227.256L749.796 226.741C749.897 226.146 750.015 225.704 750.17 225.361C750.325 225.016 750.576 224.638 750.952 224.172L751.283 223.775L751.85 223.114L752.264 222.618L752.482 222.342C752.548 222.255 752.608 222.174 752.662 222.095L752.813 221.865C752.883 221.753 752.945 221.642 753.004 221.526L753.119 221.286C753.841 219.681 753.176 217.917 751.617 217.186C751.223 217.001 750.719 216.853 750.32 216.829C749.547 216.752 748.888 216.978 747.967 217.52L747.676 217.696L747.088 218.06C746.366 218.5 745.875 218.708 745.346 218.763L744.778 218.824L744.266 218.89C742.248 219.17 741.603 219.604 740.956 221.041Z" fill="#425172"/>
<path d="M741.699 211.953L741.685 211.983C741.154 213.212 741.608 214.797 742.682 215.977C744.006 217.435 745.952 217.933 747.158 216.772C747.374 216.563 747.546 216.315 747.669 216.04C748.224 214.808 747.772 213.202 746.688 212.011C745.363 210.558 743.414 210.064 742.212 211.218C741.998 211.425 741.823 211.676 741.699 211.953Z" fill="#425172"/>
<path d="M733.167 220.996C733.116 221.109 733.085 221.183 733.059 221.273L733.032 221.373C732.531 222.997 733.784 224.633 735.633 225.15C737.345 225.623 739.161 225.031 739.818 223.571L739.898 223.381C739.908 223.352 739.918 223.323 739.926 223.293L739.953 223.194C740.454 221.569 739.201 219.934 737.351 219.417C735.639 218.942 733.825 219.534 733.167 220.996Z" fill="#425172"/>
<path d="M735.847 215.04C735.189 216.502 735.933 218.291 737.401 219.306C738.99 220.403 741.022 220.307 741.943 218.799C742.001 218.701 742.052 218.607 742.095 218.511C742.721 217.119 742.075 215.418 740.735 214.384L740.542 214.244C738.952 213.147 736.92 213.242 735.999 214.751C735.942 214.844 735.891 214.94 735.847 215.04Z" fill="#425172"/>
<path d="M734.685 227.54C734.562 227.814 734.49 228.108 734.474 228.407C734.398 230.101 736.038 231.284 737.982 231.36C739.573 231.423 741.06 230.729 741.615 229.496C741.738 229.222 741.81 228.928 741.825 228.628C741.901 226.934 740.261 225.752 738.317 225.676C736.727 225.613 735.24 226.307 734.685 227.54Z" fill="#425172"/>
<path d="M490.956 425.041C490.362 426.363 490.451 427.209 491.408 428.807L491.665 429.224L492.121 429.917C492.177 430 492.234 430.084 492.291 430.167C492.583 430.595 492.728 431.065 492.83 431.802L492.918 432.51C493.073 433.722 493.303 434.427 493.95 435.064C494.206 435.334 494.648 435.629 495.043 435.81C496.597 436.539 498.341 435.904 499.063 434.299L499.166 434.055C499.215 433.933 499.256 433.813 499.295 433.685L499.367 433.418L499.4 433.274L499.464 432.951L499.496 432.769L499.596 432.125L499.716 431.256L499.796 430.741C499.897 430.146 500.015 429.704 500.17 429.361C500.325 429.016 500.576 428.638 500.952 428.172L501.283 427.775L501.85 427.114L502.264 426.618L502.482 426.342C502.548 426.255 502.608 426.174 502.662 426.095L502.813 425.865C502.883 425.753 502.945 425.642 503.004 425.526L503.119 425.286C503.841 423.681 503.176 421.917 501.617 421.186C501.223 421.001 500.719 420.853 500.32 420.829C499.547 420.752 498.888 420.978 497.967 421.52L497.676 421.696L497.088 422.06C496.366 422.5 495.875 422.708 495.346 422.763L494.778 422.824L494.266 422.89C492.248 423.17 491.603 423.604 490.956 425.041Z" fill="#425172"/>
<path d="M491.699 415.953L491.685 415.983C491.154 417.212 491.608 418.797 492.682 419.977C494.006 421.435 495.952 421.933 497.158 420.772C497.374 420.563 497.546 420.315 497.669 420.04C498.224 418.808 497.772 417.202 496.688 416.011C495.363 414.558 493.414 414.064 492.212 415.218C491.998 415.425 491.823 415.676 491.699 415.953Z" fill="#425172"/>
<path d="M483.167 424.996C483.116 425.109 483.085 425.183 483.059 425.273L483.032 425.373C482.531 426.997 483.784 428.633 485.633 429.15C487.345 429.623 489.161 429.031 489.818 427.571L489.898 427.381C489.908 427.352 489.918 427.323 489.926 427.293L489.953 427.194C490.454 425.569 489.201 423.934 487.351 423.417C485.639 422.942 483.825 423.534 483.167 424.996Z" fill="#425172"/>
<path d="M485.847 419.04C485.189 420.502 485.933 422.291 487.401 423.306C488.99 424.403 491.022 424.307 491.943 422.799C492.001 422.701 492.052 422.607 492.095 422.511C492.721 421.119 492.075 419.418 490.735 418.384L490.542 418.244C488.952 417.147 486.92 417.242 485.999 418.751C485.942 418.844 485.891 418.94 485.847 419.04Z" fill="#425172"/>
<path d="M484.685 431.54C484.562 431.814 484.49 432.108 484.474 432.407C484.398 434.101 486.038 435.284 487.982 435.36C489.573 435.423 491.06 434.729 491.615 433.496C491.738 433.222 491.81 432.928 491.825 432.628C491.901 430.934 490.261 429.752 488.317 429.676C486.727 429.613 485.24 430.307 484.685 431.54Z" fill="#425172"/>
<path d="M775.148 361.448C773.874 360.756 773.024 360.782 771.358 361.617L770.924 361.842L770.199 362.245C770.111 362.295 770.023 362.346 769.936 362.396C769.487 362.655 769.009 362.764 768.266 362.812L767.553 362.847C766.333 362.91 765.612 363.087 764.929 363.685C764.64 363.92 764.314 364.338 764.103 364.719C763.26 366.214 763.763 368.001 765.309 368.84L765.546 368.962C765.664 369.019 765.78 369.069 765.905 369.117L766.165 369.209L766.307 369.254L766.624 369.341L766.803 369.386L767.438 369.535L768.296 369.719L768.803 369.837C769.389 369.982 769.821 370.133 770.152 370.313C770.484 370.493 770.842 370.772 771.279 371.182L771.65 371.541L772.267 372.156L772.73 372.606L772.99 372.844C773.071 372.916 773.147 372.982 773.222 373.042L773.44 373.21C773.547 373.288 773.653 373.358 773.764 373.426L773.995 373.558C775.541 374.398 777.35 373.867 778.196 372.367C778.409 371.988 778.595 371.496 778.649 371.1C778.783 370.335 778.606 369.661 778.135 368.702L777.982 368.399L777.662 367.786C777.277 367.032 777.107 366.528 777.091 365.996L777.073 365.424L777.046 364.909C776.917 362.876 776.533 362.2 775.148 361.448Z" fill="#425172"/>
<path d="M784.155 362.867L784.126 362.851C782.94 362.23 781.325 362.565 780.069 363.547C778.516 364.759 777.874 366.662 778.941 367.951C779.134 368.182 779.368 368.372 779.633 368.516C780.821 369.161 782.456 368.83 783.724 367.839C785.272 366.626 785.911 364.719 784.85 363.435C784.659 363.205 784.422 363.012 784.155 362.867Z" fill="#425172"/>
<path d="M775.774 353.683C775.666 353.625 775.595 353.588 775.506 353.555L775.408 353.521C773.827 352.9 772.101 354.027 771.448 355.833C770.849 357.505 771.303 359.36 772.71 360.124L772.893 360.218C772.921 360.23 772.95 360.242 772.979 360.253L773.076 360.287C774.658 360.908 776.383 359.78 777.036 357.975C777.639 356.302 777.183 354.449 775.774 353.683Z" fill="#425172"/>
<path d="M781.513 356.801C780.105 356.036 778.265 356.644 777.144 358.032C775.931 359.535 775.874 361.568 777.31 362.599C777.403 362.665 777.493 362.722 777.586 362.772C778.927 363.501 780.672 362.984 781.803 361.725L781.957 361.542C783.17 360.039 783.227 358.006 781.791 356.975C781.702 356.911 781.61 356.853 781.513 356.801Z" fill="#425172"/>
<path d="M769.136 354.709C768.871 354.565 768.584 354.472 768.286 354.434C766.603 354.231 765.301 355.779 765.08 357.712C764.898 359.293 765.479 360.828 766.667 361.473C766.932 361.617 767.219 361.71 767.517 361.748C769.2 361.95 770.502 360.403 770.723 358.47C770.904 356.889 770.324 355.354 769.136 354.709Z" fill="#425172"/>
<path d="M227.148 364.448C225.874 363.756 225.024 363.782 223.358 364.617L222.924 364.842L222.199 365.245C222.111 365.295 222.023 365.346 221.936 365.396C221.487 365.655 221.009 365.764 220.266 365.812L219.553 365.847C218.333 365.91 217.612 366.087 216.929 366.685C216.64 366.92 216.314 367.338 216.103 367.719C215.26 369.214 215.763 371.001 217.309 371.84L217.546 371.962C217.664 372.019 217.78 372.069 217.905 372.117L218.165 372.209L218.307 372.254L218.624 372.341L218.803 372.386L219.438 372.535L220.296 372.719L220.803 372.837C221.389 372.982 221.821 373.133 222.152 373.313C222.484 373.493 222.842 373.772 223.279 374.182L223.65 374.541L224.267 375.156L224.73 375.606L224.989 375.844C225.071 375.916 225.147 375.982 225.222 376.042L225.44 376.21C225.547 376.288 225.653 376.358 225.764 376.426L225.995 376.558C227.541 377.398 229.35 376.867 230.196 375.367C230.409 374.988 230.595 374.496 230.649 374.1C230.783 373.335 230.606 372.661 230.135 371.702L229.982 371.399L229.662 370.786C229.277 370.032 229.107 369.528 229.091 368.996L229.073 368.424L229.046 367.909C228.917 365.876 228.533 365.2 227.148 364.448Z" fill="#425172"/>
<path d="M236.155 365.867L236.126 365.851C234.94 365.23 233.325 365.565 232.069 366.547C230.516 367.759 229.874 369.662 230.941 370.951C231.134 371.182 231.368 371.372 231.633 371.516C232.821 372.161 234.456 371.83 235.724 370.839C237.272 369.626 237.911 367.719 236.85 366.435C236.659 366.205 236.422 366.012 236.155 365.867Z" fill="#425172"/>
<path d="M227.774 356.683C227.666 356.625 227.595 356.588 227.506 356.555L227.408 356.521C225.827 355.9 224.101 357.027 223.448 358.833C222.849 360.505 223.303 362.36 224.71 363.124L224.893 363.218C224.921 363.23 224.95 363.242 224.979 363.253L225.076 363.287C226.658 363.908 228.383 362.78 229.036 360.975C229.639 359.302 229.183 357.449 227.774 356.683Z" fill="#425172"/>
<path d="M233.513 359.801C232.105 359.036 230.265 359.644 229.144 361.032C227.931 362.535 227.874 364.568 229.31 365.599C229.403 365.665 229.493 365.722 229.586 365.772C230.927 366.501 232.672 365.984 233.802 364.725L233.957 364.542C235.17 363.039 235.227 361.006 233.791 359.975C233.702 359.911 233.61 359.853 233.513 359.801Z" fill="#425172"/>
<path d="M221.136 357.709C220.871 357.565 220.584 357.472 220.286 357.434C218.603 357.231 217.301 358.779 217.08 360.712C216.898 362.293 217.479 363.828 218.667 364.473C218.932 364.617 219.219 364.71 219.517 364.748C221.2 364.95 222.502 363.403 222.723 361.47C222.904 359.889 222.324 358.354 221.136 357.709Z" fill="#425172"/>
<path d="M337.148 226.448C335.874 225.756 335.024 225.782 333.358 226.617L332.924 226.842L332.199 227.245C332.111 227.295 332.023 227.346 331.936 227.396C331.487 227.655 331.009 227.764 330.266 227.812L329.553 227.847C328.333 227.91 327.612 228.087 326.929 228.685C326.64 228.92 326.314 229.338 326.103 229.719C325.26 231.214 325.763 233.001 327.309 233.84L327.546 233.962C327.664 234.019 327.78 234.069 327.905 234.117L328.165 234.209L328.307 234.254L328.624 234.341L328.803 234.386L329.438 234.535L330.296 234.719L330.803 234.837C331.389 234.982 331.821 235.133 332.152 235.313C332.484 235.493 332.842 235.772 333.279 236.182L333.65 236.541L334.267 237.156L334.73 237.606L334.989 237.844C335.071 237.916 335.147 237.982 335.222 238.042L335.44 238.21C335.547 238.288 335.653 238.358 335.764 238.426L335.995 238.558C337.541 239.398 339.35 238.867 340.196 237.367C340.409 236.988 340.595 236.496 340.649 236.1C340.783 235.335 340.606 234.661 340.135 233.702L339.982 233.399L339.662 232.786C339.277 232.032 339.107 231.528 339.091 230.996L339.073 230.424L339.046 229.909C338.917 227.876 338.533 227.2 337.148 226.448Z" fill="#425172"/>
<path d="M346.155 227.867L346.126 227.851C344.94 227.23 343.325 227.565 342.069 228.547C340.516 229.759 339.874 231.662 340.941 232.951C341.134 233.182 341.368 233.372 341.633 233.516C342.821 234.161 344.456 233.83 345.724 232.839C347.272 231.626 347.911 229.719 346.85 228.435C346.659 228.205 346.422 228.012 346.155 227.867Z" fill="#425172"/>
<path d="M337.774 218.683C337.666 218.625 337.595 218.588 337.506 218.555L337.408 218.521C335.827 217.9 334.101 219.027 333.448 220.833C332.849 222.505 333.303 224.36 334.71 225.124L334.893 225.218C334.921 225.23 334.95 225.242 334.979 225.253L335.076 225.287C336.658 225.908 338.383 224.78 339.036 222.975C339.639 221.302 339.183 219.449 337.774 218.683Z" fill="#425172"/>
<path d="M343.513 221.801C342.105 221.036 340.265 221.644 339.144 223.032C337.931 224.535 337.874 226.568 339.31 227.599C339.403 227.665 339.493 227.722 339.586 227.772C340.927 228.501 342.672 227.984 343.802 226.725L343.957 226.542C345.17 225.039 345.227 223.006 343.791 221.975C343.702 221.911 343.61 221.853 343.513 221.801Z" fill="#425172"/>
<path d="M331.136 219.709C330.871 219.565 330.584 219.472 330.286 219.434C328.603 219.231 327.301 220.779 327.08 222.712C326.898 224.293 327.479 225.828 328.667 226.473C328.932 226.617 329.219 226.71 329.517 226.748C331.2 226.95 332.502 225.403 332.723 223.47C332.904 221.889 332.324 220.354 331.136 219.709Z" fill="#425172"/>
<path d="M221.148 57.4482C219.874 56.7563 219.024 56.7819 217.358 57.6173L216.924 57.8422L216.199 58.245C216.111 58.2952 216.023 58.3456 215.936 58.3963C215.487 58.6552 215.009 58.7645 214.266 58.8116L213.553 58.8468C212.333 58.9098 211.612 59.0872 210.929 59.685C210.64 59.9196 210.314 60.3384 210.103 60.7185C209.26 62.214 209.763 64.0006 211.309 64.8404L211.546 64.9619C211.664 65.019 211.78 65.0695 211.905 65.1173L212.165 65.2092L212.307 65.2536L212.624 65.3414L212.803 65.3865L213.438 65.5346L214.296 65.7191L214.803 65.8371C215.389 65.9819 215.821 66.133 216.152 66.3129C216.484 66.4932 216.842 66.7723 217.279 67.1822L217.65 67.5413L218.267 68.1563L218.73 68.6062L218.989 68.8442C219.071 68.9163 219.147 68.9821 219.222 69.0423L219.44 69.2104C219.547 69.2884 219.653 69.3584 219.764 69.4261L219.995 69.5583C221.541 70.3981 223.35 69.8675 224.196 68.3667C224.409 67.9881 224.595 67.496 224.649 67.1004C224.783 66.3349 224.606 65.6614 224.135 64.7024L223.982 64.3992L223.662 63.7856C223.277 63.0324 223.107 62.5276 223.091 61.9959L223.073 61.4244L223.046 60.9093C222.917 58.8759 222.533 58.2005 221.148 57.4482Z" fill="#425172"/>
<path d="M230.155 58.8672L230.126 58.8515C228.94 58.2302 227.325 58.5645 226.069 59.5468C224.516 60.7585 223.874 62.662 224.941 63.9513C225.134 64.1822 225.368 64.3721 225.633 64.5157C226.821 65.161 228.456 64.8299 229.724 63.8388C231.272 62.6258 231.911 60.7194 230.85 59.4346C230.659 59.2053 230.422 59.012 230.155 58.8672Z" fill="#425172"/>
<path d="M221.774 49.6834C221.666 49.6247 221.595 49.5882 221.506 49.5552L221.408 49.5206C219.827 48.9002 218.101 50.0273 217.448 51.8329C216.849 53.5046 217.303 55.3598 218.71 56.1241L218.893 56.2177C218.921 56.2303 218.95 56.242 218.979 56.2528L219.076 56.2869C220.658 56.9079 222.383 55.7802 223.036 53.9746C223.639 52.3021 223.183 50.4488 221.774 49.6834Z" fill="#425172"/>
<path d="M227.513 52.8009C226.105 52.0361 224.265 52.6438 223.144 54.0319C221.931 55.5349 221.874 57.5684 223.31 58.5995C223.403 58.665 223.493 58.7221 223.586 58.7724C224.927 59.501 226.672 58.9841 227.802 57.7249L227.957 57.5425C229.17 56.0395 229.227 54.006 227.791 52.9749C227.702 52.9111 227.61 52.853 227.513 52.8009Z" fill="#425172"/>
<path d="M215.136 50.7089C214.871 50.5653 214.584 50.4716 214.286 50.4338C212.603 50.2315 211.301 51.7786 211.08 53.7115C210.898 55.2929 211.479 56.8276 212.667 57.4729C212.932 57.6166 213.219 57.7102 213.517 57.748C215.2 57.9504 216.502 56.4032 216.723 54.4703C216.904 52.8889 216.324 51.3542 215.136 50.7089Z" fill="#425172"/>
<path d="M1071.15 106.448C1069.87 105.756 1069.02 105.782 1067.36 106.617L1066.92 106.842L1066.2 107.245C1066.11 107.295 1066.02 107.346 1065.94 107.396C1065.49 107.655 1065.01 107.764 1064.27 107.812L1063.55 107.847C1062.33 107.91 1061.61 108.087 1060.93 108.685C1060.64 108.92 1060.31 109.338 1060.1 109.719C1059.26 111.214 1059.76 113.001 1061.31 113.84L1061.55 113.962C1061.66 114.019 1061.78 114.069 1061.9 114.117L1062.17 114.209L1062.31 114.254L1062.62 114.341L1062.8 114.386L1063.44 114.535L1064.3 114.719L1064.8 114.837C1065.39 114.982 1065.82 115.133 1066.15 115.313C1066.48 115.493 1066.84 115.772 1067.28 116.182L1067.65 116.541L1068.27 117.156L1068.73 117.606L1068.99 117.844C1069.07 117.916 1069.15 117.982 1069.22 118.042L1069.44 118.21C1069.55 118.288 1069.65 118.358 1069.76 118.426L1070 118.558C1071.54 119.398 1073.35 118.867 1074.2 117.367C1074.41 116.988 1074.59 116.496 1074.65 116.1C1074.78 115.335 1074.61 114.661 1074.13 113.702L1073.98 113.399L1073.66 112.786C1073.28 112.032 1073.11 111.528 1073.09 110.996L1073.07 110.424L1073.05 109.909C1072.92 107.876 1072.53 107.2 1071.15 106.448Z" fill="#425172"/>
<path d="M1080.15 107.867L1080.13 107.851C1078.94 107.23 1077.33 107.565 1076.07 108.547C1074.52 109.759 1073.87 111.662 1074.94 112.951C1075.13 113.182 1075.37 113.372 1075.63 113.516C1076.82 114.161 1078.46 113.83 1079.72 112.839C1081.27 111.626 1081.91 109.719 1080.85 108.435C1080.66 108.205 1080.42 108.012 1080.15 107.867Z" fill="#425172"/>
<path d="M1071.77 98.6834C1071.67 98.6247 1071.59 98.5882 1071.51 98.5552L1071.41 98.5206C1069.83 97.9002 1068.1 99.0273 1067.45 100.833C1066.85 102.505 1067.3 104.36 1068.71 105.124L1068.89 105.218C1068.92 105.23 1068.95 105.242 1068.98 105.253L1069.08 105.287C1070.66 105.908 1072.38 104.78 1073.04 102.975C1073.64 101.302 1073.18 99.4488 1071.77 98.6834Z" fill="#425172"/>
<path d="M1077.51 101.801C1076.11 101.036 1074.27 101.644 1073.14 103.032C1071.93 104.535 1071.87 106.568 1073.31 107.599C1073.4 107.665 1073.49 107.722 1073.59 107.772C1074.93 108.501 1076.67 107.984 1077.8 106.725L1077.96 106.542C1079.17 105.039 1079.23 103.006 1077.79 101.975C1077.7 101.911 1077.61 101.853 1077.51 101.801Z" fill="#425172"/>
<path d="M1065.14 99.7089C1064.87 99.5653 1064.58 99.4716 1064.29 99.4338C1062.6 99.2315 1061.3 100.779 1061.08 102.712C1060.9 104.293 1061.48 105.828 1062.67 106.473C1062.93 106.617 1063.22 106.71 1063.52 106.748C1065.2 106.95 1066.5 105.403 1066.72 103.47C1066.9 101.889 1066.32 100.354 1065.14 99.7089Z" fill="#425172"/>
<path d="M875.629 182.958C876.931 182.321 877.403 181.613 877.687 179.771L877.756 179.287L877.847 178.463C877.857 178.362 877.867 178.262 877.876 178.161C877.925 177.645 878.113 177.192 878.505 176.559L878.89 175.958C879.545 174.926 879.818 174.237 879.727 173.333C879.703 172.962 879.551 172.453 879.363 172.061C878.632 170.508 876.884 169.883 875.304 170.657L875.068 170.779C874.953 170.842 874.845 170.908 874.734 170.981L874.508 171.141L874.39 171.23L874.134 171.438L873.994 171.558L873.505 171.989L872.858 172.582L872.468 172.927C872.01 173.321 871.637 173.585 871.299 173.75C870.959 173.917 870.524 174.047 869.937 174.166L869.429 174.26L868.571 174.406L867.935 174.523L867.591 174.597C867.485 174.622 867.387 174.646 867.295 174.672L867.032 174.752C866.906 174.794 866.788 174.839 866.668 174.891L866.427 175.003C864.847 175.776 864.231 177.558 864.964 179.117C865.149 179.51 865.443 179.947 865.734 180.22C866.28 180.772 866.931 181.019 867.986 181.19L868.322 181.241L869.007 181.336C869.844 181.459 870.354 181.612 870.797 181.908L871.273 182.224L871.709 182.5C873.441 183.573 874.214 183.651 875.629 182.958Z" fill="#425172"/>
<path d="M869.254 189.478L869.284 189.463C870.478 188.856 871.14 187.347 871.068 185.753C870.98 183.786 869.8 182.16 868.131 182.283C867.831 182.306 867.541 182.387 867.27 182.519C866.056 183.114 865.379 184.638 865.452 186.246C865.544 188.211 866.728 189.836 868.389 189.715C868.687 189.692 868.982 189.611 869.254 189.478Z" fill="#425172"/>
<path d="M881.595 187.967C881.706 187.913 881.777 187.876 881.855 187.823L881.94 187.764C883.362 186.834 883.443 184.775 882.35 183.196C881.334 181.739 879.559 181.035 878.121 181.739L877.939 181.834C877.912 181.849 877.886 181.866 877.86 181.883L877.776 181.942C876.353 182.872 876.273 184.931 877.367 186.51C878.381 187.97 880.155 188.672 881.595 187.967Z" fill="#425172"/>
<path d="M875.729 190.839C877.169 190.135 877.739 188.283 877.257 186.565C876.735 184.705 875.111 183.481 873.438 184.054C873.331 184.091 873.232 184.132 873.138 184.178C871.767 184.849 871.177 186.571 871.548 188.222L871.608 188.454C872.13 190.313 873.755 191.537 875.427 190.965C875.53 190.929 875.631 190.887 875.729 190.839Z" fill="#425172"/>
<path d="M884.606 181.962C884.876 181.83 885.119 181.65 885.322 181.429C886.462 180.174 885.955 178.217 884.508 176.917C883.324 175.853 881.737 175.437 880.523 176.032C880.252 176.164 880.009 176.344 879.806 176.565C878.666 177.82 879.173 179.777 880.62 181.077C881.804 182.141 883.391 182.557 884.606 181.962Z" fill="#425172"/>
<path d="M745.998 572.002C744.78 572.789 744.395 573.547 744.33 575.41L744.319 575.898L744.325 576.728C744.327 576.829 744.329 576.93 744.332 577.031C744.344 577.549 744.211 578.021 743.896 578.696L743.585 579.338C743.056 580.44 742.866 581.157 743.063 582.043C743.131 582.409 743.342 582.896 743.575 583.263C744.483 584.72 746.293 585.134 747.771 584.18L747.991 584.03C748.097 583.954 748.197 583.876 748.299 583.79L748.505 583.605L748.611 583.503L748.84 583.266L748.966 583.131L749.4 582.644L749.973 581.98L750.32 581.592C750.728 581.146 751.067 580.84 751.384 580.635C751.701 580.43 752.118 580.25 752.687 580.063L753.18 579.909L754.015 579.663L754.632 579.471L754.965 579.358C755.068 579.321 755.162 579.285 755.251 579.249L755.502 579.138C755.622 579.081 755.734 579.022 755.847 578.957L756.074 578.818C757.552 577.863 757.953 576.021 757.041 574.56C756.811 574.191 756.468 573.792 756.147 573.555C755.539 573.071 754.864 572.903 753.796 572.857L753.456 572.846L752.765 572.833C751.919 572.81 751.394 572.717 750.92 572.476L750.41 572.218L749.945 571.995C748.099 571.134 747.322 571.147 745.998 572.002Z" fill="#425172"/>
<path d="M751.56 564.777L751.532 564.795C750.418 565.538 749.938 567.115 750.198 568.689C750.517 570.633 751.88 572.108 753.523 571.789C753.818 571.731 754.097 571.616 754.35 571.453C755.486 570.72 755.979 569.126 755.717 567.538C755.394 565.598 754.027 564.124 752.391 564.439C752.098 564.497 751.814 564.612 751.56 564.777Z" fill="#425172"/>
<path d="M739.483 567.731C739.379 567.798 739.313 567.843 739.242 567.905L739.165 567.974C737.862 569.065 738.024 571.12 739.296 572.559C740.476 573.886 742.322 574.376 743.667 573.507L743.837 573.391C743.862 573.373 743.886 573.353 743.909 573.333L743.985 573.264C745.289 572.173 745.126 570.119 743.854 568.68C742.675 567.35 740.83 566.862 739.483 567.731Z" fill="#425172"/>
<path d="M744.969 564.188C743.623 565.057 743.275 566.964 743.956 568.613C744.694 570.398 746.451 571.422 748.044 570.656C748.146 570.606 748.24 570.554 748.328 570.497C749.611 569.669 749.993 567.89 749.43 566.294L749.344 566.071C748.606 564.287 746.848 563.262 745.255 564.028C745.157 564.075 745.061 564.129 744.969 564.188Z" fill="#425172"/>
<path d="M737.201 574.049C736.949 574.213 736.728 574.42 736.553 574.663C735.568 576.044 736.302 577.928 737.893 579.048C739.194 579.965 740.819 580.191 741.955 579.457C742.208 579.294 742.428 579.087 742.604 578.844C743.588 577.463 742.854 575.579 741.263 574.459C739.962 573.542 738.337 573.316 737.201 574.049Z" fill="#425172"/>
<path d="M159.998 583.002C158.78 583.789 158.395 584.547 158.33 586.41L158.319 586.898L158.325 587.728C158.327 587.829 158.329 587.93 158.332 588.031C158.344 588.549 158.211 589.021 157.896 589.696L157.585 590.338C157.056 591.44 156.866 592.157 157.063 593.043C157.131 593.409 157.342 593.896 157.575 594.263C158.483 595.72 160.293 596.134 161.771 595.18L161.991 595.03C162.097 594.954 162.197 594.876 162.299 594.79L162.505 594.605L162.611 594.503L162.84 594.266L162.966 594.131L163.4 593.644L163.973 592.98L164.32 592.592C164.728 592.146 165.067 591.84 165.384 591.635C165.701 591.43 166.118 591.25 166.687 591.063L167.18 590.909L168.015 590.663L168.632 590.471L168.965 590.358C169.068 590.321 169.162 590.285 169.251 590.249L169.502 590.138C169.622 590.081 169.734 590.022 169.847 589.957L170.074 589.818C171.552 588.863 171.953 587.021 171.041 585.56C170.811 585.191 170.468 584.792 170.147 584.555C169.539 584.071 168.864 583.903 167.796 583.857L167.456 583.846L166.765 583.833C165.919 583.81 165.394 583.717 164.92 583.476L164.41 583.218L163.945 582.995C162.099 582.134 161.322 582.147 159.998 583.002Z" fill="#425172"/>
<path d="M165.56 575.777L165.532 575.795C164.418 576.538 163.938 578.115 164.198 579.689C164.517 581.633 165.88 583.108 167.523 582.789C167.818 582.731 168.097 582.616 168.35 582.453C169.486 581.72 169.979 580.126 169.717 578.538C169.394 576.598 168.027 575.124 166.391 575.439C166.098 575.497 165.814 575.612 165.56 575.777Z" fill="#425172"/>
<path d="M153.483 578.731C153.379 578.798 153.313 578.843 153.242 578.905L153.165 578.974C151.862 580.065 152.024 582.12 153.296 583.559C154.476 584.886 156.322 585.376 157.667 584.507L157.837 584.391C157.862 584.373 157.886 584.353 157.909 584.333L157.985 584.264C159.289 583.173 159.126 581.119 157.854 579.68C156.675 578.35 154.83 577.862 153.483 578.731Z" fill="#425172"/>
<path d="M158.969 575.188C157.623 576.057 157.275 577.964 157.956 579.613C158.694 581.398 160.451 582.422 162.044 581.656C162.146 581.606 162.24 581.554 162.328 581.497C163.611 580.669 163.993 578.89 163.43 577.294L163.344 577.071C162.606 575.287 160.848 574.262 159.255 575.028C159.157 575.075 159.061 575.129 158.969 575.188Z" fill="#425172"/>
<path d="M151.201 585.049C150.949 585.213 150.728 585.42 150.553 585.663C149.568 587.044 150.302 588.928 151.893 590.048C153.194 590.965 154.819 591.191 155.955 590.457C156.208 590.294 156.428 590.087 156.604 589.844C157.588 588.463 156.854 586.579 155.263 585.459C153.962 584.542 152.337 584.316 151.201 585.049Z" fill="#425172"/>
<path d="M159.998 201.002C158.78 201.789 158.395 202.547 158.33 204.409L158.319 204.898L158.325 205.728C158.327 205.829 158.329 205.93 158.332 206.031C158.344 206.549 158.211 207.021 157.896 207.696L157.585 208.338C157.056 209.44 156.866 210.157 157.063 211.043C157.131 211.409 157.342 211.896 157.575 212.263C158.483 213.72 160.293 214.134 161.771 213.18L161.991 213.03C162.097 212.954 162.197 212.876 162.299 212.79L162.505 212.605L162.611 212.502L162.84 212.266L162.966 212.131L163.4 211.644L163.973 210.98L164.32 210.591C164.728 210.146 165.067 209.84 165.384 209.635C165.701 209.43 166.118 209.25 166.687 209.063L167.18 208.909L168.015 208.663L168.632 208.471L168.965 208.358C169.068 208.321 169.162 208.285 169.251 208.249L169.502 208.138C169.622 208.081 169.734 208.022 169.847 207.957L170.074 207.818C171.552 206.863 171.953 205.021 171.041 203.559C170.811 203.191 170.468 202.792 170.147 202.555C169.539 202.071 168.864 201.903 167.796 201.857L167.456 201.846L166.765 201.833C165.919 201.81 165.394 201.717 164.92 201.476L164.41 201.218L163.945 200.995C162.099 200.133 161.322 200.147 159.998 201.002Z" fill="#425172"/>
<path d="M165.56 193.777L165.532 193.795C164.418 194.538 163.938 196.115 164.198 197.689C164.517 199.633 165.88 201.108 167.523 200.789C167.818 200.731 168.097 200.616 168.35 200.453C169.486 199.72 169.979 198.126 169.717 196.538C169.394 194.597 168.027 193.124 166.391 193.439C166.098 193.497 165.814 193.612 165.56 193.777Z" fill="#425172"/>
<path d="M153.483 196.731C153.379 196.798 153.313 196.843 153.242 196.905L153.165 196.974C151.862 198.065 152.024 200.12 153.296 201.558C154.476 202.886 156.322 203.376 157.667 202.507L157.837 202.391C157.862 202.373 157.886 202.353 157.909 202.333L157.985 202.264C159.289 201.173 159.126 199.119 157.854 197.68C156.675 196.35 154.83 195.862 153.483 196.731Z" fill="#425172"/>
<path d="M158.969 193.188C157.623 194.057 157.275 195.964 157.956 197.613C158.694 199.398 160.451 200.422 162.044 199.656C162.146 199.606 162.24 199.554 162.328 199.497C163.611 198.669 163.993 196.89 163.43 195.294L163.344 195.071C162.606 193.287 160.848 192.262 159.255 193.028C159.157 193.075 159.061 193.129 158.969 193.188Z" fill="#425172"/>
<path d="M151.201 203.049C150.949 203.213 150.728 203.42 150.553 203.663C149.568 205.044 150.302 206.928 151.893 208.048C153.194 208.965 154.819 209.191 155.955 208.457C156.208 208.294 156.428 208.087 156.604 207.844C157.588 206.463 156.854 204.579 155.263 203.459C153.962 202.542 152.337 202.316 151.201 203.049Z" fill="#425172"/>
<path d="M1070.63 219.958C1071.93 219.321 1072.4 218.613 1072.69 216.771L1072.76 216.287L1072.85 215.463C1072.86 215.362 1072.87 215.262 1072.88 215.161C1072.92 214.645 1073.11 214.192 1073.51 213.559L1073.89 212.958C1074.55 211.926 1074.82 211.237 1074.73 210.333C1074.7 209.962 1074.55 209.453 1074.36 209.061C1073.63 207.508 1071.88 206.883 1070.3 207.657L1070.07 207.779C1069.95 207.842 1069.84 207.908 1069.73 207.981L1069.51 208.141L1069.39 208.23L1069.13 208.438L1068.99 208.558L1068.51 208.989L1067.86 209.582L1067.47 209.927C1067.01 210.321 1066.64 210.585 1066.3 210.75C1065.96 210.917 1065.52 211.047 1064.94 211.166L1064.43 211.26L1063.57 211.406L1062.94 211.523L1062.59 211.597C1062.49 211.622 1062.39 211.646 1062.3 211.672L1062.03 211.752C1061.91 211.794 1061.79 211.839 1061.67 211.891L1061.43 212.003C1059.85 212.776 1059.23 214.558 1059.96 216.117C1060.15 216.51 1060.44 216.947 1060.73 217.22C1061.28 217.772 1061.93 218.019 1062.99 218.19L1063.32 218.241L1064.01 218.336C1064.84 218.459 1065.35 218.612 1065.8 218.908L1066.27 219.224L1066.71 219.5C1068.44 220.573 1069.21 220.651 1070.63 219.958Z" fill="#425172"/>
<path d="M1064.25 226.478L1064.28 226.463C1065.48 225.856 1066.14 224.347 1066.07 222.753C1065.98 220.786 1064.8 219.16 1063.13 219.283C1062.83 219.306 1062.54 219.387 1062.27 219.519C1061.06 220.114 1060.38 221.638 1060.45 223.246C1060.54 225.211 1061.73 226.836 1063.39 226.715C1063.69 226.692 1063.98 226.611 1064.25 226.478Z" fill="#425172"/>
<path d="M1076.6 224.967C1076.71 224.913 1076.78 224.876 1076.86 224.823L1076.94 224.764C1078.36 223.834 1078.44 221.775 1077.35 220.196C1076.33 218.739 1074.56 218.035 1073.12 218.739L1072.94 218.834C1072.91 218.849 1072.89 218.866 1072.86 218.883L1072.78 218.942C1071.35 219.872 1071.27 221.931 1072.37 223.51C1073.38 224.97 1075.16 225.672 1076.6 224.967Z" fill="#425172"/>
<path d="M1070.73 227.839C1072.17 227.135 1072.74 225.283 1072.26 223.565C1071.73 221.705 1070.11 220.481 1068.44 221.054C1068.33 221.091 1068.23 221.132 1068.14 221.178C1066.77 221.849 1066.18 223.571 1066.55 225.222L1066.61 225.454C1067.13 227.313 1068.75 228.537 1070.43 227.965C1070.53 227.929 1070.63 227.887 1070.73 227.839Z" fill="#425172"/>
<path d="M1079.61 218.962C1079.88 218.83 1080.12 218.65 1080.32 218.429C1081.46 217.174 1080.96 215.217 1079.51 213.917C1078.32 212.853 1076.74 212.437 1075.52 213.032C1075.25 213.164 1075.01 213.344 1074.81 213.565C1073.67 214.82 1074.17 216.777 1075.62 218.077C1076.8 219.141 1078.39 219.557 1079.61 218.962Z" fill="#425172"/>
<path d="M1227.63 90.9584C1228.93 90.321 1229.4 89.6132 1229.69 87.7715L1229.76 87.2872L1229.85 86.4629C1229.86 86.3623 1229.87 86.2616 1229.88 86.161C1229.92 85.6454 1230.11 85.1919 1230.51 84.5594L1230.89 83.9577C1231.55 82.9265 1231.82 82.2368 1231.73 81.3333C1231.7 80.9622 1231.55 80.4532 1231.36 80.0615C1230.63 78.5081 1228.88 77.8831 1227.3 78.6567L1227.07 78.7791C1226.95 78.8421 1226.84 78.9077 1226.73 78.9813L1226.51 79.1407L1226.39 79.2302L1226.13 79.4379L1225.99 79.5576L1225.51 79.9894L1224.86 80.5816L1224.47 80.9265C1224.01 81.3206 1223.64 81.5848 1223.3 81.7505C1222.96 81.9166 1222.52 82.0469 1221.94 82.1656L1221.43 82.2601L1220.57 82.4062L1219.94 82.5235L1219.59 82.5968C1219.49 82.6216 1219.39 82.6457 1219.3 82.6715L1219.03 82.7517C1218.91 82.794 1218.79 82.8394 1218.67 82.8913L1218.43 83.0027C1216.85 83.7763 1216.23 85.5582 1216.96 87.1172C1217.15 87.5103 1217.44 87.9465 1217.73 88.2198C1218.28 88.7724 1218.93 89.019 1219.99 89.1901L1220.32 89.241L1221.01 89.3359C1221.84 89.4587 1222.35 89.6122 1222.8 89.9076L1223.27 90.2238L1223.71 90.4999C1225.44 91.5734 1226.21 91.6514 1227.63 90.9584Z" fill="#425172"/>
<path d="M1221.25 97.4777L1221.28 97.4632C1222.48 96.8561 1223.14 95.3468 1223.07 93.7533C1222.98 91.7857 1221.8 90.1599 1220.13 90.2826C1219.83 90.3058 1219.54 90.387 1219.27 90.5193C1218.06 91.1137 1217.38 92.6382 1217.45 94.2461C1217.54 96.2108 1218.73 97.8356 1220.39 97.7154C1220.69 97.6924 1220.98 97.6112 1221.25 97.4777Z" fill="#425172"/>
<path d="M1233.6 95.9674C1233.71 95.9133 1233.78 95.8762 1233.86 95.8232L1233.94 95.7636C1235.36 94.8341 1235.44 92.7746 1234.35 91.196C1233.33 89.7389 1231.56 89.0346 1230.12 89.7386L1229.94 89.8335C1229.91 89.8493 1229.89 89.8659 1229.86 89.8833L1229.78 89.9425C1228.35 90.8724 1228.27 92.9314 1229.37 94.5101C1230.38 95.9699 1232.16 96.6724 1233.6 95.9674Z" fill="#425172"/>
<path d="M1227.73 98.8391C1229.17 98.1346 1229.74 96.2829 1229.26 94.5646C1228.73 92.7054 1227.11 91.4809 1225.44 92.0537C1225.33 92.0914 1225.23 92.1318 1225.14 92.1782C1223.77 92.8494 1223.18 94.571 1223.55 96.2221L1223.61 96.4537C1224.13 98.3129 1225.75 99.5374 1227.43 98.9646C1227.53 98.9294 1227.63 98.8875 1227.73 98.8391Z" fill="#425172"/>
<path d="M1236.61 89.9625C1236.88 89.8302 1237.12 89.6501 1237.32 89.4294C1238.46 88.1745 1237.96 86.217 1236.51 84.9172C1235.32 83.853 1233.74 83.4372 1232.52 84.0317C1232.25 84.164 1232.01 84.3441 1231.81 84.5648C1230.67 85.8197 1231.17 87.7771 1232.62 89.077C1233.8 90.1412 1235.39 90.5569 1236.61 89.9625Z" fill="#425172"/>
<path d="M65.6293 66.9584C66.9314 66.321 67.403 65.6132 67.6872 63.7715L67.7555 63.2872L67.8472 62.4629C67.8572 62.3623 67.8669 62.2616 67.8763 62.161C67.925 61.6454 68.1134 61.1919 68.5052 60.5594L68.8896 59.9577C69.5453 58.9265 69.818 58.2368 69.7267 57.3333C69.7027 56.9622 69.5506 56.4532 69.3628 56.0615C68.6321 54.5081 66.8844 53.8831 65.3042 54.6567L65.0681 54.7791C64.9533 54.8421 64.8447 54.9077 64.7337 54.9813L64.5077 55.1407L64.3896 55.2302L64.1342 55.4379L63.9938 55.5576L63.5052 55.9894L62.8579 56.5816L62.4679 56.9265C62.0101 57.3206 61.6369 57.5848 61.2986 57.7505C60.9592 57.9166 60.5242 58.0469 59.9369 58.1656L59.4292 58.2601L58.5708 58.4062L57.9354 58.5235L57.5913 58.5968C57.4852 58.6216 57.3874 58.6457 57.2952 58.6715L57.0319 58.7517C56.9062 58.794 56.788 58.8394 56.668 58.8913L56.4267 59.0027C54.8465 59.7763 54.2309 61.5582 54.9641 63.1172C55.149 63.5103 55.4427 63.9465 55.7339 64.2198C56.2802 64.7724 56.9313 65.019 57.9862 65.1901L58.322 65.241L59.0074 65.3359C59.8442 65.4587 60.3545 65.6122 60.7968 65.9076L61.2732 66.2238L61.7089 66.4999C63.4406 67.5734 64.2139 67.6514 65.6293 66.9584Z" fill="#425172"/>
<path d="M59.2545 73.4777L59.2841 73.4632C60.4778 72.8561 61.1404 71.3468 61.0681 69.7533C60.98 67.7857 59.8003 66.1599 58.1312 66.2826C57.8315 66.3058 57.5408 66.387 57.2705 66.5193C56.0562 67.1137 55.3789 68.6382 55.452 70.2461C55.5436 72.2108 56.7277 73.8356 58.3894 73.7154C58.6871 73.6924 58.982 73.6112 59.2545 73.4777Z" fill="#425172"/>
<path d="M71.5954 71.9674C71.7059 71.9133 71.777 71.8762 71.8553 71.8232L71.9401 71.7636C73.362 70.8341 73.443 68.7746 72.3498 67.196C71.3345 65.7389 69.5591 65.0346 68.121 65.7386L67.9387 65.8335C67.912 65.8493 67.8858 65.8659 67.8602 65.8833L67.7763 65.9425C66.3534 66.8724 66.2734 68.9314 67.3666 70.5101C68.3808 71.9699 70.1553 72.6724 71.5954 71.9674Z" fill="#425172"/>
<path d="M65.7294 74.8391C67.1685 74.1346 67.7392 72.2829 67.2575 70.5646C66.735 68.7054 65.1106 67.4809 63.4384 68.0537C63.3311 68.0914 63.2324 68.1318 63.1377 68.1782C61.7667 68.8494 61.1772 70.571 61.5485 72.2221L61.6076 72.4537C62.1301 74.3129 63.7546 75.5374 65.4268 74.9646C65.53 74.9294 65.6311 74.8875 65.7294 74.8391Z" fill="#425172"/>
<path d="M74.6057 65.9625C74.8759 65.8302 75.1189 65.6501 75.3221 65.4294C76.4623 64.1745 75.9555 62.217 74.508 60.9172C73.3243 59.853 71.7369 59.4372 70.5226 60.0317C70.2524 60.164 70.0094 60.3441 69.8062 60.5648C68.6659 61.8197 69.1728 63.7771 70.6203 65.077C71.804 66.1412 73.3914 66.5569 74.6057 65.9625Z" fill="#425172"/>
<path d="M1028.73 60.0982C1030.12 59.6805 1030.7 59.0586 1031.28 57.2873L1031.42 56.8205L1031.65 56.0221C1031.67 55.9244 1031.7 55.8266 1031.72 55.7288C1031.86 55.2281 1032.12 54.8111 1032.6 54.2505L1033.08 53.7192C1033.9 52.808 1034.28 52.1717 1034.33 51.2654C1034.37 50.8953 1034.3 50.3684 1034.18 49.9513C1033.71 48.3 1032.09 47.3997 1030.4 47.9067L1030.15 47.9891C1030.03 48.0327 1029.91 48.0798 1029.79 48.1345L1029.54 48.255L1029.41 48.3242L1029.12 48.4877L1028.96 48.5831L1028.41 48.9298L1027.68 49.4092L1027.24 49.6863C1026.72 50.0008 1026.31 50.201 1025.95 50.3096C1025.59 50.4184 1025.14 50.4764 1024.54 50.4983L1024.02 50.5091L1023.15 50.514L1022.5 50.5267L1022.15 50.5432C1022.04 50.5504 1021.94 50.5583 1021.85 50.5689L1021.58 50.6053C1021.45 50.6266 1021.32 50.6523 1021.19 50.684L1020.94 50.7547C1019.25 51.2617 1018.36 52.9202 1018.83 54.5774C1018.95 54.9954 1019.17 55.4734 1019.41 55.7903C1019.86 56.4243 1020.46 56.7732 1021.47 57.1132L1021.8 57.2179L1022.46 57.4228C1023.26 57.6797 1023.74 57.9139 1024.13 58.2773L1024.55 58.6666L1024.93 59.0097C1026.47 60.3499 1027.22 60.5523 1028.73 60.0982Z" fill="#425172"/>
<path d="M1021.38 65.4968L1021.41 65.4873C1022.69 65.0819 1023.59 63.7001 1023.77 62.116C1024.01 60.1601 1023.11 58.3645 1021.44 58.2147C1021.14 58.1891 1020.84 58.222 1020.55 58.3087C1019.26 58.6982 1018.34 60.0926 1018.15 61.691C1017.92 63.6446 1018.83 65.44 1020.49 65.591C1020.79 65.6165 1021.09 65.5843 1021.38 65.4968Z" fill="#425172"/>
<path d="M1033.8 66.0088C1033.92 65.9733 1034 65.9483 1034.08 65.9086L1034.18 65.8636C1035.73 65.1771 1036.14 63.1581 1035.32 61.423C1034.56 59.8205 1032.92 58.8374 1031.38 59.2988L1031.19 59.3629C1031.16 59.3741 1031.13 59.3863 1031.1 59.3993L1031.01 59.444C1029.46 60.1308 1029.04 62.1495 1029.87 63.8846C1030.63 65.4897 1032.27 66.4708 1033.8 66.0088Z" fill="#425172"/>
<path d="M1027.55 67.8907C1029.08 67.429 1029.95 65.6944 1029.75 63.9207C1029.54 62.0014 1028.13 60.5295 1026.39 60.8234C1026.28 60.8433 1026.17 60.8672 1026.07 60.8975C1024.61 61.3374 1023.75 62.9405 1023.85 64.63L1023.87 64.8681C1024.08 66.7874 1025.49 68.2593 1027.23 67.9654C1027.34 67.9474 1027.44 67.9225 1027.55 67.8907Z" fill="#425172"/>
<path d="M1037.75 60.5718C1038.04 60.4851 1038.3 60.3468 1038.54 60.162C1039.87 59.1088 1039.69 57.095 1038.47 55.5775C1037.47 54.3354 1035.98 53.6676 1034.68 54.0571C1034.39 54.1439 1034.12 54.2822 1033.89 54.467C1032.56 55.5202 1032.74 57.534 1033.96 59.0514C1034.95 60.2936 1036.45 60.9614 1037.75 60.5718Z" fill="#425172"/>
<path d="M998.982 284.758C997.732 285.492 997.315 286.233 997.17 288.091L997.139 288.579L997.109 289.408C997.107 289.509 997.105 289.61 997.103 289.711C997.093 290.229 996.94 290.695 996.597 291.355L996.258 291.984C995.682 293.062 995.462 293.77 995.621 294.664C995.673 295.033 995.863 295.529 996.08 295.905C996.926 297.399 998.716 297.891 1000.23 297L1000.46 296.86C1000.57 296.789 1000.67 296.715 1000.78 296.634L1000.99 296.458L1001.1 296.36L1001.34 296.133L1001.47 296.003L1001.93 295.536L1002.53 294.897L1002.89 294.523C1003.32 294.096 1003.67 293.804 1003.99 293.614C1004.32 293.422 1004.74 293.26 1005.32 293.097L1005.82 292.965L1006.66 292.754L1007.29 292.589L1007.63 292.49C1007.73 292.458 1007.83 292.426 1007.92 292.394L1008.17 292.294C1008.3 292.242 1008.41 292.188 1008.53 292.127L1008.76 291.998C1010.28 291.108 1010.76 289.284 1009.91 287.785C1009.69 287.407 1009.37 286.994 1009.06 286.743C1008.47 286.234 1007.8 286.037 1006.74 285.946L1006.4 285.92L1005.71 285.877C1004.86 285.818 1004.34 285.703 1003.88 285.442L1003.38 285.162L1002.93 284.92C1001.12 283.98 1000.34 283.96 998.982 284.758Z" fill="#425172"/>
<path d="M1004.85 277.777L1004.82 277.794C1003.67 278.489 1003.13 280.044 1003.32 281.627C1003.56 283.583 1004.85 285.115 1006.51 284.867C1006.81 284.821 1007.09 284.719 1007.35 284.566C1008.52 283.882 1009.08 282.311 1008.88 280.713C1008.64 278.761 1007.34 277.23 1005.69 277.475C1005.4 277.52 1005.11 277.623 1004.85 277.777Z" fill="#425172"/>
<path d="M992.656 280.213C992.55 280.275 992.481 280.317 992.407 280.376L992.327 280.442C990.98 281.476 991.054 283.536 992.263 285.027C993.385 286.404 995.208 286.972 996.589 286.162L996.764 286.054C996.79 286.036 996.814 286.017 996.839 285.998L996.918 285.933C998.267 284.898 998.191 282.839 996.982 281.347C995.861 279.968 994.039 279.401 992.656 280.213Z" fill="#425172"/>
<path d="M998.289 276.907C996.907 277.718 996.477 279.608 997.087 281.285C997.748 283.099 999.46 284.198 1001.08 283.501C1001.19 283.455 1001.28 283.407 1001.37 283.354C1002.69 282.581 1003.15 280.82 1002.65 279.202L1002.58 278.975C1001.92 277.161 1000.21 276.062 998.581 276.759C998.481 276.802 998.383 276.852 998.289 276.907Z" fill="#425172"/>
<path d="M990.106 286.427C989.847 286.58 989.618 286.777 989.432 287.013C988.39 288.35 989.042 290.264 990.584 291.451C991.844 292.423 993.459 292.718 994.625 292.034C994.884 291.881 995.113 291.683 995.299 291.448C996.341 290.111 995.688 288.197 994.147 287.01C992.887 286.038 991.272 285.743 990.106 286.427Z" fill="#425172"/>
<path d="M363.715 52.0618C363.491 53.4941 363.801 54.2862 365.147 55.5745L365.505 55.908L366.128 56.4555C366.205 56.5214 366.282 56.587 366.359 56.6524C366.753 56.9878 367.017 57.402 367.311 58.0856L367.584 58.7454C368.053 59.8737 368.462 60.4924 369.255 60.9354C369.573 61.1283 370.077 61.2954 370.506 61.3659C372.197 61.6573 373.711 60.5831 373.983 58.8448L374.018 58.5812C374.032 58.451 374.04 58.3244 374.044 58.1912L374.043 57.9147L374.037 57.7666L374.013 57.4382L373.995 57.2547L373.921 56.6068L373.807 55.7369L373.748 55.2197C373.687 54.6187 373.685 54.1614 373.743 53.7892C373.801 53.4159 373.944 52.9847 374.183 52.4354L374.396 51.9652L374.769 51.178L375.036 50.5901L375.174 50.2661C375.214 50.1649 375.25 50.0709 375.282 49.9805L375.367 49.7189C375.405 49.5916 375.435 49.4687 375.461 49.3406L375.508 49.0791C375.78 47.3408 374.672 45.8151 372.975 45.5226C372.546 45.4488 372.021 45.4396 371.63 45.5216C370.864 45.6526 370.289 46.045 369.544 46.8114L369.31 47.0575L368.839 47.5648C368.259 48.1802 367.841 48.5104 367.345 48.7036L366.813 48.9128L366.337 49.1116C364.465 49.9157 363.958 50.5047 363.715 52.0618Z" fill="#425172"/>
<path d="M362.025 43.1016L362.02 43.1342C361.834 44.4603 362.691 45.8683 364.038 46.7221C365.701 47.7775 367.71 47.7424 368.566 46.3042C368.718 46.0452 368.818 45.7605 368.865 45.4632C369.073 44.1274 368.212 42.6988 366.853 41.8372C365.19 40.7864 363.18 40.8257 362.326 42.2565C362.175 42.5136 362.072 42.8018 362.025 43.1016Z" fill="#425172"/>
<path d="M356.191 54.0808C356.172 54.2023 356.162 54.2818 356.16 54.3763L356.161 54.48C356.108 56.1779 357.749 57.4245 359.669 57.4333C361.445 57.4361 363.04 56.3848 363.287 54.8027L363.313 54.599C363.316 54.5681 363.317 54.5371 363.318 54.5061L363.317 54.4035C363.37 52.7045 361.729 51.459 359.809 51.4502C358.031 51.4449 356.439 52.4965 356.191 54.0808Z" fill="#425172"/>
<path d="M357.199 47.6277C356.952 49.2109 358.142 50.7397 359.827 51.3296C361.65 51.9668 363.584 51.3373 364.073 49.6386C364.103 49.5291 364.127 49.425 364.143 49.3209C364.379 47.8126 363.306 46.343 361.74 45.7011L361.516 45.6169C359.693 44.9797 357.759 45.6092 357.27 47.3078C357.239 47.4127 357.216 47.5195 357.199 47.6277Z" fill="#425172"/>
<path d="M359.387 59.9888C359.341 60.2861 359.349 60.5884 359.414 60.8814C359.789 62.535 361.683 63.2413 363.578 62.8C365.128 62.4397 366.379 61.377 366.587 60.0413C366.634 59.744 366.626 59.4417 366.561 59.1487C366.186 57.4951 364.291 56.7888 362.397 57.2301C360.846 57.5904 359.596 58.6531 359.387 59.9888Z" fill="#425172"/>
<path d="M632.208 535.517C630.945 536.016 630.529 536.672 630.402 538.477L630.375 538.952L630.355 539.764C630.353 539.863 630.352 539.962 630.351 540.061C630.347 540.57 630.196 541.002 629.855 541.591L629.518 542.15C628.944 543.109 628.728 543.768 628.899 544.677C628.956 545.049 629.155 545.572 629.38 545.982C630.256 547.605 632.081 548.41 633.614 547.805L633.843 547.707C633.954 547.657 634.058 547.603 634.164 547.541L634.379 547.406L634.491 547.329L634.731 547.149L634.863 547.044L635.32 546.665L635.924 546.143L636.289 545.84C636.718 545.495 637.073 545.271 637.402 545.141C637.731 545.011 638.16 544.927 638.745 544.87L639.251 544.829L640.108 544.773L640.741 544.722L641.084 544.685C641.189 544.672 641.286 544.658 641.377 544.642L641.637 544.589C641.76 544.56 641.876 544.527 641.993 544.488L642.228 544.402C643.761 543.797 644.229 542.086 643.349 540.457C643.128 540.046 642.792 539.581 642.473 539.278C641.871 538.671 641.19 538.357 640.106 538.077L639.761 537.991L639.059 537.825C638.2 537.615 637.67 537.409 637.196 537.069L636.686 536.704L636.22 536.383C634.371 535.133 633.581 534.975 632.208 535.517Z" fill="#425172"/>
<path d="M638.096 529.689L638.067 529.701C636.911 530.181 636.371 531.615 636.584 533.21C636.846 535.179 638.183 536.921 639.864 536.973C640.165 536.981 640.453 536.931 640.715 536.827C641.893 536.362 642.446 534.914 642.231 533.305C641.966 531.339 640.624 529.597 638.951 529.543C638.652 529.535 638.36 529.585 638.096 529.689Z" fill="#425172"/>
<path d="M625.725 529.905C625.618 529.948 625.549 529.977 625.474 530.022L625.394 530.072C624.034 530.85 624.133 532.893 625.378 534.579C626.535 536.137 628.395 537.023 629.79 536.472L629.967 536.397C629.992 536.384 630.017 536.37 630.042 536.355L630.122 536.305C631.482 535.528 631.383 533.485 630.137 531.798C628.982 530.238 627.122 529.354 625.725 529.905Z" fill="#425172"/>
<path d="M631.417 527.657C630.02 528.209 629.604 529.994 630.243 531.756C630.935 533.662 632.688 535.051 634.332 534.655C634.437 534.629 634.534 534.599 634.625 534.563C635.956 534.037 636.402 532.384 635.881 530.7L635.801 530.464C635.109 528.557 633.356 527.168 631.712 527.564C631.611 527.588 631.512 527.619 631.417 527.657Z" fill="#425172"/>
<path d="M623.201 535.572C622.939 535.676 622.708 535.83 622.522 536.029C621.476 537.16 622.161 539.162 623.742 540.608C625.034 541.792 626.679 542.371 627.857 541.906C628.119 541.803 628.349 541.649 628.536 541.45C629.581 540.319 628.896 538.316 627.316 536.87C626.024 535.687 624.379 535.107 623.201 535.572Z" fill="#425172"/>
<path d="M561.49 287.129C561.751 285.703 561.461 284.903 560.149 283.58L559.8 283.237L559.191 282.674C559.116 282.606 559.041 282.538 558.966 282.471C558.58 282.125 558.327 281.704 558.051 281.014L557.795 280.347C557.355 279.207 556.963 278.578 556.182 278.114C555.869 277.913 555.369 277.733 554.942 277.651C553.259 277.316 551.718 278.351 551.401 280.082L551.359 280.344C551.342 280.474 551.33 280.6 551.323 280.733L551.317 281.01L551.319 281.158L551.335 281.487L551.347 281.671L551.404 282.32L551.496 283.193L551.542 283.711C551.587 284.314 551.578 284.771 551.51 285.142C551.442 285.513 551.288 285.941 551.035 286.484L550.809 286.948L550.417 287.725L550.134 288.306L549.988 288.627C549.945 288.727 549.906 288.82 549.873 288.909L549.781 289.168C549.74 289.295 549.706 289.417 549.677 289.544L549.623 289.804C549.306 291.535 550.374 293.089 552.064 293.425C552.49 293.51 553.015 293.533 553.408 293.461C554.177 293.35 554.762 292.973 555.527 292.226L555.767 291.986L556.251 291.491C556.846 290.891 557.273 290.572 557.774 290.391L558.311 290.196L558.792 290.01C560.684 289.255 561.206 288.679 561.49 287.129Z" fill="#425172"/>
<path d="M562.946 296.13L562.952 296.097C563.173 294.776 562.353 293.347 561.028 292.458C559.393 291.36 557.384 291.343 556.491 292.758C556.332 293.013 556.225 293.295 556.17 293.591C555.927 294.921 556.751 296.372 558.088 297.268C559.723 298.362 561.733 298.375 562.624 296.967C562.782 296.713 562.892 296.428 562.946 296.13Z" fill="#425172"/>
<path d="M569.063 285.305C569.086 285.184 569.098 285.105 569.102 285.011L569.104 284.907C569.201 283.211 567.593 281.922 565.674 281.864C563.898 281.815 562.277 282.825 561.989 284.4L561.957 284.603C561.954 284.633 561.952 284.664 561.95 284.695L561.948 284.798C561.851 286.495 563.459 287.783 565.379 287.841C567.156 287.893 568.775 286.883 569.063 285.305Z" fill="#425172"/>
<path d="M567.888 291.73C568.177 290.154 567.026 288.595 565.358 287.961C563.552 287.277 561.602 287.856 561.069 289.542C561.036 289.65 561.01 289.754 560.991 289.857C560.716 291.359 561.751 292.856 563.299 293.538L563.521 293.628C565.327 294.313 567.277 293.733 567.809 292.048C567.843 291.944 567.869 291.838 567.888 291.73Z" fill="#425172"/>
<path d="M566.022 279.316C566.076 279.02 566.075 278.718 566.018 278.423C565.686 276.761 563.811 276.005 561.905 276.398C560.346 276.717 559.068 277.747 558.825 279.077C558.771 279.373 558.772 279.676 558.828 279.97C559.16 281.633 561.036 282.388 562.942 281.996C564.501 281.676 565.778 280.646 566.022 279.316Z" fill="#425172"/>
<path d="M299.954 133.991C300.215 132.565 299.926 131.765 298.613 130.442L298.264 130.099L297.655 129.536C297.58 129.468 297.505 129.4 297.43 129.333C297.044 128.988 296.791 128.567 296.515 127.876L296.26 127.209C295.82 126.069 295.427 125.44 294.646 124.976C294.333 124.775 293.833 124.595 293.407 124.514C291.723 124.178 290.182 125.213 289.865 126.944L289.824 127.206C289.806 127.336 289.794 127.462 289.788 127.595L289.781 127.872L289.783 128.02L289.799 128.349L289.812 128.533L289.869 129.182L289.96 130.055L290.006 130.574C290.051 131.176 290.042 131.633 289.974 132.004C289.906 132.375 289.753 132.803 289.499 133.346L289.274 133.81L288.881 134.587L288.598 135.168L288.452 135.489C288.409 135.589 288.371 135.682 288.337 135.771L288.245 136.031C288.204 136.157 288.17 136.279 288.141 136.406L288.087 136.666C287.771 138.397 288.838 139.951 290.528 140.287C290.954 140.372 291.479 140.395 291.872 140.323C292.641 140.212 293.226 139.835 293.991 139.088L294.231 138.848L294.715 138.353C295.311 137.753 295.737 137.434 296.238 137.254L296.775 137.058L297.256 136.872C299.148 136.117 299.67 135.541 299.954 133.991Z" fill="#425172"/>
<path d="M301.411 142.992L301.416 142.959C301.637 141.638 300.817 140.209 299.492 139.32C297.857 138.222 295.848 138.205 294.956 139.621C294.796 139.875 294.689 140.157 294.635 140.453C294.391 141.783 295.215 143.234 296.552 144.13C298.187 145.224 300.197 145.237 301.088 143.829C301.246 143.576 301.356 143.29 301.411 142.992Z" fill="#425172"/>
<path d="M307.528 132.167C307.55 132.046 307.562 131.967 307.566 131.873L307.568 131.769C307.665 130.073 306.057 128.784 304.138 128.726C302.362 128.677 300.741 129.687 300.453 131.262L300.421 131.465C300.418 131.496 300.416 131.526 300.414 131.557L300.412 131.66C300.315 133.357 301.924 134.645 303.843 134.703C305.62 134.755 307.239 133.745 307.528 132.167Z" fill="#425172"/>
<path d="M306.352 138.592C306.641 137.016 305.49 135.457 303.822 134.823C302.016 134.139 300.066 134.718 299.533 136.404C299.5 136.512 299.474 136.616 299.455 136.72C299.18 138.221 300.215 139.718 301.763 140.4L301.985 140.49C303.791 141.175 305.741 140.596 306.274 138.91C306.307 138.806 306.333 138.7 306.352 138.592Z" fill="#425172"/>
<path d="M304.486 126.179C304.54 125.882 304.539 125.58 304.483 125.285C304.151 123.623 302.275 122.868 300.369 123.26C298.81 123.58 297.533 124.609 297.289 125.939C297.235 126.235 297.236 126.538 297.292 126.832C297.624 128.495 299.5 129.25 301.406 128.858C302.965 128.538 304.242 127.508 304.486 126.179Z" fill="#425172"/>
<path d="M456.748 164.279C455.583 163.58 454.81 163.649 453.301 164.647L452.907 164.915L452.251 165.393C452.171 165.452 452.092 165.512 452.013 165.571C451.607 165.878 451.172 166.021 450.497 166.108L449.848 166.181C448.738 166.309 448.084 166.539 447.467 167.229C447.206 167.5 446.912 167.976 446.724 168.404C445.969 170.087 446.441 172.025 447.855 172.873L448.071 172.995C448.179 173.052 448.285 173.102 448.399 173.149L448.637 173.237L448.766 173.279L449.055 173.36L449.218 173.401L449.798 173.533L450.58 173.695L451.042 173.8C451.577 173.93 451.971 174.076 452.273 174.257C452.577 174.439 452.905 174.729 453.306 175.158L453.647 175.534L454.213 176.18L454.639 176.652L454.876 176.901C454.951 176.976 455.021 177.045 455.089 177.107L455.289 177.281C455.387 177.362 455.484 177.434 455.586 177.503L455.797 177.637C457.211 178.485 458.853 177.815 459.61 176.125C459.801 175.699 459.966 175.15 460.012 174.712C460.128 173.865 459.962 173.134 459.525 172.103L459.383 171.777L459.087 171.119C458.731 170.31 458.572 169.764 458.553 169.18L458.532 168.553L458.503 167.989C458.37 165.762 458.014 165.038 456.748 164.279Z" fill="#425172"/>
<path d="M464.956 165.403L464.929 165.387C463.845 164.762 462.379 165.207 461.243 166.346C459.84 167.752 459.271 169.874 460.253 171.239C460.43 171.483 460.645 171.681 460.887 171.826C461.973 172.477 463.458 172.035 464.604 170.885C466.003 169.478 466.569 167.353 465.593 165.993C465.417 165.75 465.2 165.549 464.956 165.403Z" fill="#425172"/>
<path d="M457.255 155.719C457.156 155.66 457.091 155.623 457.01 155.591L456.921 155.558C455.477 154.953 453.916 156.274 453.336 158.289C452.804 160.154 453.232 162.17 454.519 162.942L454.686 163.036C454.712 163.048 454.738 163.06 454.765 163.07L454.853 163.103C456.298 163.709 457.858 162.387 458.438 160.372C458.973 158.506 458.543 156.492 457.255 155.719Z" fill="#425172"/>
<path d="M462.503 158.867C461.215 158.094 459.546 158.851 458.537 160.43C457.445 162.139 457.41 164.376 458.725 165.439C458.81 165.506 458.892 165.565 458.977 165.616C460.204 166.351 461.787 165.699 462.806 164.262L462.945 164.054C464.036 162.344 464.072 160.108 462.757 159.044C462.676 158.979 462.591 158.919 462.503 158.867Z" fill="#425172"/>
<path d="M451.222 157.166C450.98 157.021 450.718 156.932 450.447 156.905C448.913 156.763 447.741 158.526 447.556 160.66C447.403 162.406 447.944 164.063 449.031 164.715C449.273 164.86 449.535 164.949 449.806 164.976C451.34 165.117 452.512 163.355 452.697 161.221C452.85 159.475 452.309 157.817 451.222 157.166Z" fill="#425172"/>
<path d="M1203.11 262.302C1202.55 261.067 1201.87 260.687 1200.06 260.657L1199.59 260.655L1198.77 260.678C1198.68 260.682 1198.58 260.686 1198.48 260.691C1197.97 260.714 1197.53 260.586 1196.92 260.276L1196.35 259.97C1195.36 259.448 1194.69 259.267 1193.79 259.487C1193.42 259.564 1192.91 259.79 1192.51 260.036C1190.94 260.998 1190.23 262.863 1190.92 264.362L1191.03 264.585C1191.08 264.693 1191.14 264.794 1191.21 264.897L1191.36 265.104L1191.44 265.212L1191.63 265.443L1191.74 265.568L1192.15 266.005L1192.7 266.58L1193.02 266.928C1193.39 267.339 1193.63 267.681 1193.78 268.002C1193.93 268.324 1194.03 268.748 1194.12 269.329L1194.19 269.832L1194.29 270.685L1194.38 271.315L1194.43 271.654C1194.45 271.759 1194.47 271.855 1194.49 271.945L1194.56 272.202C1194.59 272.324 1194.63 272.437 1194.68 272.552L1194.78 272.782C1195.46 274.281 1197.2 274.656 1198.78 273.691C1199.17 273.448 1199.62 273.088 1199.91 272.753C1200.48 272.12 1200.76 271.423 1200.98 270.326L1201.05 269.977L1201.17 269.267C1201.34 268.398 1201.52 267.857 1201.83 267.366L1202.17 266.837L1202.46 266.355C1203.61 264.442 1203.73 263.645 1203.11 262.302Z" fill="#425172"/>
<path d="M1209.25 267.871L1209.23 267.843C1208.69 266.714 1207.23 266.252 1205.65 266.549C1203.7 266.916 1202.03 268.344 1202.07 270.025C1202.08 270.326 1202.14 270.611 1202.26 270.867C1202.79 272.019 1204.26 272.493 1205.86 272.193C1207.81 271.824 1209.47 270.391 1209.44 268.717C1209.43 268.418 1209.37 268.129 1209.25 267.871Z" fill="#425172"/>
<path d="M1208.37 255.529C1208.32 255.424 1208.29 255.357 1208.24 255.285L1208.19 255.207C1207.34 253.891 1205.3 254.099 1203.69 255.432C1202.19 256.67 1201.41 258.575 1202.03 259.939L1202.12 260.111C1202.13 260.136 1202.14 260.16 1202.16 260.184L1202.22 260.261C1203.06 261.578 1205.1 261.37 1206.72 260.036C1208.21 258.799 1209 256.895 1208.37 255.529Z" fill="#425172"/>
<path d="M1210.92 261.093C1210.29 259.728 1208.49 259.408 1206.77 260.139C1204.9 260.932 1203.6 262.757 1204.09 264.377C1204.12 264.481 1204.15 264.576 1204.2 264.665C1204.79 265.966 1206.47 266.323 1208.12 265.714L1208.35 265.621C1210.22 264.828 1211.51 263.004 1211.03 261.383C1211 261.283 1210.96 261.186 1210.92 261.093Z" fill="#425172"/>
<path d="M1202.58 253.311C1202.46 253.055 1202.29 252.833 1202.09 252.657C1200.9 251.674 1198.94 252.464 1197.58 254.12C1196.47 255.473 1195.97 257.147 1196.5 258.298C1196.62 258.555 1196.79 258.776 1196.99 258.952C1198.18 259.936 1200.14 259.145 1201.5 257.49C1202.61 256.136 1203.11 254.463 1202.58 253.311Z" fill="#425172"/>
<path d="M560.785 623.736C559.338 623.653 558.579 624.038 557.428 625.503L557.131 625.892L556.647 626.565C556.588 626.648 556.531 626.731 556.473 626.814C556.178 627.239 555.791 627.542 555.139 627.901L554.509 628.236C553.432 628.813 552.856 629.281 552.492 630.113C552.331 630.448 552.213 630.966 552.185 631.399C552.059 633.111 553.276 634.513 555.032 634.615L555.298 634.624C555.429 634.625 555.556 634.621 555.689 634.612L555.964 634.584L556.111 634.564L556.435 634.508L556.616 634.473L557.254 634.336L558.108 634.138L558.617 634.029C559.21 633.91 559.664 633.863 560.04 633.884C560.418 633.906 560.861 634.006 561.431 634.191L561.919 634.358L562.739 634.651L563.35 634.861L563.686 634.966C563.791 634.996 563.888 635.023 563.981 635.046L564.249 635.105C564.38 635.13 564.505 635.149 564.635 635.162L564.9 635.184C566.656 635.285 568.067 634.034 568.193 632.316C568.225 631.883 568.183 631.359 568.064 630.978C567.859 630.228 567.412 629.694 566.577 629.027L566.309 628.818L565.759 628.399C565.09 627.881 564.721 627.497 564.48 627.023L564.22 626.514L563.976 626.059C562.994 624.274 562.358 623.827 560.785 623.736Z" fill="#425172"/>
<path d="M569.538 621.183L569.505 621.182C568.167 621.125 566.849 622.115 566.131 623.539C565.242 625.297 565.472 627.292 566.987 628.004C567.259 628.131 567.552 628.203 567.853 628.22C569.203 628.298 570.541 627.302 571.266 625.865C572.15 624.108 571.916 622.111 570.409 621.401C570.138 621.275 569.841 621.201 569.538 621.183Z" fill="#425172"/>
<path d="M558.044 616.444C557.921 616.437 557.841 616.435 557.747 616.442L557.644 616.453C555.949 616.565 554.867 618.32 555.045 620.232C555.215 621.999 556.417 623.484 558.015 623.576L558.221 623.583C558.252 623.582 558.283 623.581 558.313 623.578L558.416 623.568C560.112 623.456 561.192 621.701 561.014 619.789C560.846 618.019 559.645 616.536 558.044 616.444Z" fill="#425172"/>
<path d="M564.564 616.82C562.965 616.728 561.559 618.061 561.136 619.795C560.679 621.671 561.493 623.535 563.231 623.857C563.343 623.876 563.449 623.89 563.554 623.896C565.078 623.984 566.437 622.773 566.923 621.152L566.985 620.921C567.442 619.045 566.628 617.181 564.89 616.859C564.782 616.839 564.674 616.826 564.564 616.82Z" fill="#425172"/>
<path d="M552.475 620.2C552.174 620.182 551.874 620.22 551.589 620.313C549.98 620.847 549.461 622.801 550.084 624.644C550.593 626.152 551.773 627.293 553.122 627.371C553.423 627.388 553.723 627.35 554.008 627.258C555.617 626.724 556.136 624.769 555.513 622.927C555.004 621.419 553.824 620.277 552.475 620.2Z" fill="#425172"/>
<path d="M381.224 502.523C382.425 501.71 382.794 500.944 382.819 499.08L382.819 498.591L382.795 497.762C382.791 497.661 382.787 497.56 382.782 497.459C382.759 496.942 382.882 496.467 383.182 495.786L383.479 495.137C383.985 494.024 384.159 493.303 383.943 492.421C383.867 492.057 383.646 491.574 383.405 491.212C382.466 489.776 380.648 489.4 379.191 490.386L378.974 490.54C378.869 490.618 378.771 490.698 378.671 490.787L378.469 490.976L378.365 491.081L378.141 491.322L378.019 491.46L377.595 491.956L377.036 492.632L376.698 493.028C376.299 493.482 375.967 493.796 375.655 494.007C375.342 494.218 374.929 494.408 374.364 494.607L373.874 494.772L373.045 495.036L372.432 495.24L372.101 495.361C372 495.4 371.906 495.437 371.818 495.476L371.569 495.592C371.45 495.651 371.339 495.713 371.228 495.781L371.004 495.925C369.547 496.91 369.185 498.761 370.128 500.203C370.366 500.566 370.718 500.957 371.044 501.187C371.662 501.659 372.341 501.812 373.41 501.835L373.749 501.839L374.441 501.837C375.287 501.842 375.813 501.923 376.293 502.154L376.808 502.401L377.278 502.614C379.142 503.436 379.919 503.406 381.224 502.523Z" fill="#425172"/>
<path d="M375.818 509.865L375.846 509.847C376.943 509.08 377.39 507.493 377.096 505.925C376.735 503.989 375.341 502.543 373.705 502.897C373.411 502.961 373.135 503.082 372.886 503.251C371.766 504.008 371.307 505.612 371.603 507.194C371.967 509.127 373.366 510.571 374.995 510.221C375.286 510.157 375.567 510.036 375.818 509.865Z" fill="#425172"/>
<path d="M387.829 506.653C387.931 506.584 387.996 506.537 388.066 506.474L388.142 506.403C389.421 505.285 389.215 503.234 387.912 501.823C386.704 500.521 384.848 500.071 383.522 500.968L383.355 501.088C383.33 501.107 383.307 501.127 383.284 501.148L383.209 501.218C381.929 502.337 382.137 504.387 383.439 505.798C384.646 507.103 386.501 507.551 387.829 506.653Z" fill="#425172"/>
<path d="M382.42 510.313C383.747 509.415 384.054 507.502 383.338 505.867C382.562 504.099 380.783 503.112 379.207 503.912C379.106 503.964 379.014 504.018 378.927 504.077C377.662 504.933 377.318 506.72 377.915 508.303L378.006 508.524C378.782 510.292 380.561 511.279 382.137 510.479C382.235 510.43 382.329 510.374 382.42 510.313Z" fill="#425172"/>
<path d="M389.975 500.288C390.224 500.119 390.44 499.907 390.61 499.66C391.565 498.259 390.79 496.391 389.176 495.305C387.856 494.416 386.226 494.225 385.106 494.983C384.857 495.151 384.642 495.363 384.471 495.61C383.516 497.011 384.291 498.879 385.905 499.965C387.225 500.854 388.855 501.045 389.975 500.288Z" fill="#425172"/>
<path d="M374.998 326.002C373.78 326.789 373.395 327.547 373.33 329.41L373.319 329.898L373.325 330.728C373.327 330.829 373.329 330.93 373.332 331.031C373.344 331.549 373.211 332.021 372.896 332.696L372.585 333.338C372.056 334.44 371.866 335.157 372.063 336.043C372.131 336.409 372.342 336.896 372.575 337.263C373.483 338.72 375.293 339.134 376.771 338.18L376.991 338.03C377.097 337.954 377.197 337.876 377.299 337.79L377.505 337.605L377.611 337.503L377.84 337.266L377.966 337.131L378.4 336.644L378.973 335.98L379.32 335.592C379.728 335.146 380.067 334.84 380.384 334.635C380.701 334.43 381.118 334.25 381.687 334.063L382.18 333.909L383.015 333.663L383.632 333.471L383.965 333.358C384.068 333.321 384.162 333.285 384.251 333.249L384.502 333.138C384.622 333.081 384.734 333.022 384.847 332.957L385.074 332.818C386.552 331.863 386.953 330.021 386.041 328.56C385.811 328.191 385.468 327.792 385.147 327.555C384.539 327.071 383.864 326.903 382.796 326.857L382.456 326.846L381.765 326.833C380.919 326.81 380.394 326.717 379.92 326.476L379.41 326.218L378.945 325.995C377.099 325.134 376.322 325.147 374.998 326.002Z" fill="#425172"/>
<path d="M380.56 318.777L380.532 318.795C379.418 319.538 378.938 321.115 379.198 322.689C379.517 324.633 380.88 326.108 382.523 325.789C382.818 325.731 383.097 325.616 383.35 325.453C384.486 324.72 384.979 323.126 384.717 321.538C384.394 319.598 383.027 318.124 381.391 318.439C381.098 318.497 380.814 318.612 380.56 318.777Z" fill="#425172"/>
<path d="M368.483 321.731C368.379 321.798 368.313 321.843 368.242 321.905L368.165 321.974C366.862 323.065 367.024 325.12 368.296 326.559C369.476 327.886 371.322 328.376 372.667 327.507L372.837 327.391C372.862 327.373 372.886 327.353 372.909 327.333L372.985 327.264C374.289 326.173 374.126 324.119 372.854 322.68C371.675 321.35 369.83 320.862 368.483 321.731Z" fill="#425172"/>
<path d="M373.969 318.188C372.623 319.057 372.275 320.964 372.956 322.613C373.694 324.398 375.451 325.422 377.044 324.656C377.146 324.606 377.24 324.554 377.328 324.497C378.611 323.669 378.993 321.89 378.43 320.294L378.344 320.071C377.606 318.287 375.848 317.262 374.255 318.028C374.157 318.075 374.061 318.129 373.969 318.188Z" fill="#425172"/>
<path d="M366.201 328.049C365.949 328.213 365.728 328.42 365.553 328.663C364.568 330.044 365.302 331.928 366.893 333.048C368.194 333.965 369.819 334.191 370.955 333.457C371.208 333.294 371.428 333.087 371.604 332.844C372.588 331.463 371.854 329.579 370.263 328.459C368.962 327.542 367.337 327.316 366.201 328.049Z" fill="#425172"/>
<path d="M342.785 602.736C341.338 602.653 340.579 603.038 339.428 604.503L339.131 604.892L338.647 605.565C338.588 605.648 338.531 605.731 338.473 605.814C338.178 606.239 337.791 606.542 337.139 606.901L336.509 607.236C335.432 607.813 334.856 608.281 334.492 609.113C334.331 609.448 334.213 609.966 334.185 610.399C334.059 612.111 335.276 613.513 337.032 613.615L337.298 613.624C337.429 613.625 337.556 613.621 337.689 613.612L337.964 613.584L338.111 613.564L338.435 613.508L338.616 613.473L339.254 613.336L340.108 613.138L340.617 613.029C341.21 612.91 341.664 612.863 342.04 612.884C342.418 612.906 342.861 613.006 343.431 613.191L343.919 613.358L344.739 613.651L345.35 613.861L345.686 613.966C345.791 613.996 345.888 614.023 345.981 614.046L346.249 614.105C346.38 614.13 346.505 614.149 346.635 614.162L346.9 614.184C348.656 614.285 350.067 613.034 350.193 611.316C350.225 610.883 350.183 610.359 350.064 609.978C349.859 609.228 349.412 608.694 348.577 608.027L348.309 607.818L347.759 607.399C347.09 606.881 346.721 606.497 346.48 606.023L346.22 605.514L345.976 605.059C344.994 603.274 344.358 602.827 342.785 602.736Z" fill="#425172"/>
<path d="M351.538 600.183L351.505 600.182C350.167 600.125 348.849 601.115 348.131 602.539C347.242 604.297 347.472 606.292 348.987 607.004C349.259 607.131 349.552 607.203 349.853 607.22C351.203 607.298 352.541 606.302 353.266 604.865C354.15 603.108 353.916 601.111 352.409 600.401C352.138 600.275 351.841 600.201 351.538 600.183Z" fill="#425172"/>
<path d="M340.044 595.444C339.921 595.437 339.841 595.435 339.747 595.442L339.644 595.453C337.949 595.565 336.867 597.32 337.045 599.232C337.215 600.999 338.417 602.484 340.015 602.576L340.221 602.583C340.252 602.582 340.283 602.581 340.313 602.578L340.416 602.568C342.112 602.456 343.192 600.701 343.014 598.789C342.846 597.019 341.645 595.536 340.044 595.444Z" fill="#425172"/>
<path d="M346.564 595.82C344.965 595.728 343.559 597.061 343.136 598.795C342.679 600.671 343.493 602.535 345.231 602.857C345.343 602.876 345.449 602.89 345.554 602.896C347.078 602.984 348.437 601.773 348.923 600.152L348.985 599.921C349.442 598.045 348.628 596.181 346.89 595.859C346.782 595.839 346.674 595.826 346.564 595.82Z" fill="#425172"/>
<path d="M334.475 599.2C334.174 599.182 333.874 599.22 333.589 599.313C331.98 599.847 331.461 601.801 332.084 603.644C332.593 605.152 333.773 606.293 335.122 606.371C335.423 606.388 335.723 606.35 336.008 606.258C337.617 605.724 338.136 603.769 337.513 601.927C337.004 600.419 335.824 599.277 334.475 599.2Z" fill="#425172"/>
<path d="M505.998 520.002C504.78 520.789 504.395 521.547 504.33 523.41L504.319 523.898L504.325 524.728C504.327 524.829 504.329 524.93 504.332 525.031C504.344 525.549 504.211 526.021 503.896 526.696L503.585 527.338C503.056 528.44 502.866 529.157 503.063 530.043C503.131 530.409 503.342 530.896 503.575 531.263C504.483 532.72 506.293 533.134 507.771 532.18L507.991 532.03C508.097 531.954 508.197 531.876 508.299 531.79L508.505 531.605L508.611 531.503L508.84 531.266L508.966 531.131L509.4 530.644L509.973 529.98L510.32 529.592C510.728 529.146 511.067 528.84 511.384 528.635C511.701 528.43 512.118 528.25 512.687 528.063L513.18 527.909L514.015 527.663L514.632 527.471L514.965 527.358C515.068 527.321 515.162 527.285 515.251 527.249L515.502 527.138C515.622 527.081 515.734 527.022 515.847 526.957L516.074 526.818C517.552 525.863 517.953 524.021 517.041 522.56C516.811 522.191 516.468 521.792 516.147 521.555C515.539 521.071 514.864 520.903 513.796 520.857L513.456 520.846L512.765 520.833C511.919 520.81 511.394 520.717 510.92 520.476L510.41 520.218L509.945 519.995C508.099 519.134 507.322 519.147 505.998 520.002Z" fill="#425172"/>
<path d="M511.56 512.777L511.532 512.795C510.418 513.538 509.938 515.115 510.198 516.689C510.517 518.633 511.88 520.108 513.523 519.789C513.818 519.731 514.097 519.616 514.35 519.453C515.486 518.72 515.979 517.126 515.717 515.538C515.394 513.598 514.027 512.124 512.391 512.439C512.098 512.497 511.814 512.612 511.56 512.777Z" fill="#425172"/>
<path d="M499.483 515.731C499.379 515.798 499.313 515.843 499.242 515.905L499.165 515.974C497.862 517.065 498.024 519.12 499.296 520.559C500.476 521.886 502.322 522.376 503.667 521.507L503.837 521.391C503.862 521.373 503.886 521.353 503.909 521.333L503.985 521.264C505.289 520.173 505.126 518.119 503.854 516.68C502.675 515.35 500.83 514.862 499.483 515.731Z" fill="#425172"/>
<path d="M504.969 512.188C503.623 513.057 503.275 514.964 503.956 516.613C504.694 518.398 506.451 519.422 508.044 518.656C508.146 518.606 508.24 518.554 508.328 518.497C509.611 517.669 509.993 515.89 509.43 514.294L509.344 514.071C508.606 512.287 506.848 511.262 505.255 512.028C505.157 512.075 505.061 512.129 504.969 512.188Z" fill="#425172"/>
<path d="M497.201 522.049C496.949 522.213 496.728 522.42 496.553 522.663C495.568 524.044 496.302 525.928 497.893 527.048C499.194 527.965 500.819 528.191 501.955 527.457C502.208 527.294 502.428 527.087 502.604 526.844C503.588 525.463 502.854 523.579 501.263 522.459C499.962 521.542 498.337 521.316 497.201 522.049Z" fill="#425172"/>
<path d="M795.998 59.0022C794.78 59.7886 794.395 60.5471 794.33 62.4095L794.319 62.8985L794.325 63.7278C794.327 63.8289 794.329 63.93 794.332 64.0311C794.344 64.5487 794.211 65.0213 793.896 65.6956L793.585 66.3384C793.056 67.4397 792.866 68.1568 793.063 69.0432C793.131 69.4089 793.342 69.8964 793.575 70.2632C794.483 71.7197 796.293 72.1343 797.771 71.1798L797.991 71.0305C798.097 70.9544 798.197 70.8764 798.299 70.7902L798.505 70.6053L798.611 70.5025L798.84 70.2661L798.966 70.1307L799.4 69.6444L799.973 68.98L800.32 68.5915C800.728 68.1462 801.067 67.8398 801.384 67.6354C801.701 67.4305 802.118 67.2498 802.687 67.0627L803.18 66.909L804.015 66.6627L804.632 66.4714L804.965 66.358C805.068 66.3209 805.162 66.2854 805.251 66.2489L805.502 66.1382C805.622 66.0814 805.734 66.0224 805.847 65.9567L806.074 65.8177C807.552 64.8632 807.953 63.0211 807.041 61.5595C806.811 61.1908 806.468 60.7923 806.147 60.5553C805.539 60.0709 804.864 59.9028 803.796 59.8572L803.456 59.8463L802.765 59.8328C801.919 59.8095 801.394 59.7173 800.92 59.476L800.41 59.2181L799.945 58.9953C798.099 58.1335 797.322 58.1472 795.998 59.0022Z" fill="#425172"/>
<path d="M801.56 51.7769L801.532 51.7948C800.418 52.5383 799.938 54.1152 800.198 55.6891C800.517 57.6326 801.88 59.108 803.523 58.7894C803.818 58.731 804.097 58.6162 804.35 58.4529C805.486 57.7195 805.979 56.1259 805.717 54.5377C805.394 52.5975 804.027 51.1236 802.391 51.4389C802.098 51.4969 801.814 51.6122 801.56 51.7769Z" fill="#425172"/>
<path d="M789.483 54.7314C789.379 54.7981 789.313 54.8433 789.242 54.9052L789.165 54.9744C787.862 56.065 788.024 58.1197 789.296 59.5585C790.476 60.8857 792.322 61.3758 793.667 60.5072L793.837 60.3914C793.862 60.3726 793.886 60.353 793.909 60.3327L793.985 60.2641C795.289 59.1729 795.126 57.1188 793.854 55.6801C792.675 54.35 790.83 53.8615 789.483 54.7314Z" fill="#425172"/>
<path d="M794.969 51.1882C793.623 52.0575 793.275 53.9636 793.956 55.6131C794.694 57.3977 796.451 58.4222 798.044 57.6563C798.146 57.6061 798.24 57.5544 798.328 57.4972C799.611 56.669 799.993 54.89 799.43 53.2941L799.344 53.0711C798.606 51.2865 796.848 50.262 795.255 51.0279C795.157 51.075 795.061 51.1286 794.969 51.1882Z" fill="#425172"/>
<path d="M787.201 61.0493C786.949 61.2125 786.728 61.42 786.553 61.6631C785.568 63.0437 786.302 64.9277 787.893 66.0479C789.194 66.9651 790.819 67.1909 791.955 66.4574C792.208 66.2942 792.428 66.0867 792.604 65.8436C793.588 64.463 792.854 62.579 791.263 61.4588C789.962 60.5415 788.337 60.3158 787.201 61.0493Z" fill="#425172"/>
<path d="M1025.78 437.736C1024.34 437.653 1023.58 438.038 1022.43 439.503L1022.13 439.892L1021.65 440.565C1021.59 440.648 1021.53 440.731 1021.47 440.814C1021.18 441.239 1020.79 441.542 1020.14 441.901L1019.51 442.236C1018.43 442.813 1017.86 443.281 1017.49 444.113C1017.33 444.448 1017.21 444.966 1017.19 445.399C1017.06 447.111 1018.28 448.513 1020.03 448.615L1020.3 448.624C1020.43 448.625 1020.56 448.621 1020.69 448.612L1020.96 448.584L1021.11 448.564L1021.44 448.508L1021.62 448.473L1022.25 448.336L1023.11 448.138L1023.62 448.029C1024.21 447.91 1024.66 447.863 1025.04 447.884C1025.42 447.906 1025.86 448.006 1026.43 448.191L1026.92 448.358L1027.74 448.651L1028.35 448.861L1028.69 448.966C1028.79 448.996 1028.89 449.023 1028.98 449.046L1029.25 449.105C1029.38 449.13 1029.51 449.149 1029.64 449.162L1029.9 449.184C1031.66 449.285 1033.07 448.034 1033.19 446.316C1033.23 445.883 1033.18 445.359 1033.06 444.978C1032.86 444.228 1032.41 443.694 1031.58 443.027L1031.31 442.818L1030.76 442.399C1030.09 441.881 1029.72 441.497 1029.48 441.023L1029.22 440.514L1028.98 440.059C1027.99 438.274 1027.36 437.827 1025.78 437.736Z" fill="#425172"/>
<path d="M1034.54 435.183L1034.51 435.182C1033.17 435.125 1031.85 436.115 1031.13 437.539C1030.24 439.297 1030.47 441.292 1031.99 442.004C1032.26 442.131 1032.55 442.203 1032.85 442.22C1034.2 442.298 1035.54 441.302 1036.27 439.865C1037.15 438.108 1036.92 436.111 1035.41 435.401C1035.14 435.275 1034.84 435.201 1034.54 435.183Z" fill="#425172"/>
<path d="M1023.04 430.444C1022.92 430.437 1022.84 430.435 1022.75 430.442L1022.64 430.453C1020.95 430.565 1019.87 432.32 1020.05 434.232C1020.22 435.999 1021.42 437.484 1023.02 437.576L1023.22 437.583C1023.25 437.582 1023.28 437.581 1023.31 437.578L1023.42 437.568C1025.11 437.456 1026.19 435.701 1026.01 433.789C1025.85 432.019 1024.64 430.536 1023.04 430.444Z" fill="#425172"/>
<path d="M1029.56 430.82C1027.96 430.728 1026.56 432.061 1026.14 433.795C1025.68 435.671 1026.49 437.535 1028.23 437.857C1028.34 437.876 1028.45 437.89 1028.55 437.896C1030.08 437.984 1031.44 436.773 1031.92 435.152L1031.99 434.921C1032.44 433.045 1031.63 431.181 1029.89 430.859C1029.78 430.839 1029.67 430.826 1029.56 430.82Z" fill="#425172"/>
<path d="M1017.47 434.2C1017.17 434.182 1016.87 434.22 1016.59 434.313C1014.98 434.847 1014.46 436.801 1015.08 438.644C1015.59 440.152 1016.77 441.293 1018.12 441.371C1018.42 441.388 1018.72 441.35 1019.01 441.258C1020.62 440.724 1021.14 438.769 1020.51 436.927C1020 435.419 1018.82 434.277 1017.47 434.2Z" fill="#425172"/>
<path d="M79.8713 346.533C79.0901 345.422 78.3552 345.171 76.5709 345.471L76.1026 345.556L75.3089 345.726C75.2121 345.748 75.1154 345.77 75.0187 345.793C74.5235 345.908 74.068 345.862 73.4153 345.668L72.7927 345.472C71.7262 345.138 71.0354 345.083 70.1915 345.463C69.843 345.605 69.3812 345.921 69.0355 346.235C67.6625 347.467 67.3077 349.431 68.2557 350.779L68.4038 350.979C68.4791 351.074 68.5561 351.163 68.6409 351.252L68.8227 351.429L68.9236 351.52L69.1552 351.711L69.2877 351.815L69.7633 352.171L70.4126 352.635L70.7926 352.919C71.2283 353.256 71.5295 353.548 71.7325 353.837C71.936 354.127 72.1186 354.524 72.311 355.079L72.4696 355.562L72.7247 356.382L72.9223 356.986L73.0385 357.31C73.0764 357.409 73.1126 357.5 73.1496 357.585L73.2614 357.825C73.3185 357.938 73.3776 358.043 73.4432 358.148L73.5815 358.356C74.5295 359.704 76.3022 359.758 77.6801 358.522C78.0276 358.21 78.4011 357.774 78.6205 357.393C79.0701 356.666 79.2153 355.93 79.2341 354.811L79.2367 354.456L79.2335 353.734C79.2361 352.85 79.3122 352.286 79.5321 351.745L79.7671 351.164L79.9696 350.636C80.7516 348.546 80.7204 347.741 79.8713 346.533Z" fill="#425172"/>
<path d="M86.9168 350.891L86.899 350.866C86.1614 349.854 84.6408 349.666 83.1402 350.247C81.2873 350.962 79.9067 352.671 80.2498 354.317C80.3126 354.612 80.429 354.879 80.5912 355.11C81.3196 356.146 82.8566 356.344 84.3707 355.758C86.2204 355.04 87.5995 353.327 87.2597 351.688C87.1974 351.395 87.0804 351.123 86.9168 350.891Z" fill="#425172"/>
<path d="M83.8079 338.915C83.7416 338.821 83.6968 338.761 83.6359 338.699L83.5679 338.632C82.4936 337.493 80.5306 338.067 79.1829 339.674C77.94 341.163 77.5137 343.179 78.3765 344.406L78.4912 344.56C78.5098 344.582 78.5291 344.603 78.549 344.623L78.6165 344.689C79.6913 345.829 81.6538 345.254 83.0014 343.648C84.2472 342.159 84.6719 340.144 83.8079 338.915Z" fill="#425172"/>
<path d="M87.3271 343.922C86.4637 342.693 84.6311 342.707 83.0679 343.741C81.3768 344.86 80.4369 346.89 81.2071 348.395C81.2575 348.492 81.3092 348.578 81.366 348.659C82.1886 349.829 83.9004 349.876 85.4149 348.975L85.6264 348.842C87.3175 347.722 88.2574 345.693 87.4872 344.187C87.4398 344.094 87.3863 344.005 87.3271 343.922Z" fill="#425172"/>
<path d="M77.7072 337.789C77.5451 337.559 77.3413 337.371 77.1045 337.236C75.7602 336.485 73.9737 337.62 72.9385 339.495C72.0907 341.029 71.9124 342.764 72.6409 343.8C72.803 344.031 73.0067 344.218 73.2435 344.353C74.5879 345.104 76.3743 343.969 77.4096 342.094C78.2574 340.56 78.4357 338.826 77.7072 337.789Z" fill="#425172"/>
</g>
<defs>
<clipPath id="clip0_0_1">
<rect width="1366" height="667" fill="white"/>
</clipPath>
</defs>
</svg>
