<svg width="1447" height="696" viewBox="0 0 1447 696" fill="none" xmlns="http://www.w3.org/2000/svg">
<g clip-path="url(#clip0_407_2)">
<path d="M1447 0H0V696H1447V0Z" fill="#F5F5F5"/>
<mask id="mask0_407_2" style="mask-type:luminance" maskUnits="userSpaceOnUse" x="0" y="0" width="1447" height="696">
<path d="M1447 0H0V696H1447V0Z" fill="white"/>
</mask>
<g mask="url(#mask0_407_2)">
<path d="M1447 0H0V696H1447V0Z" fill="#FFF3D3"/>
<path fill-rule="evenodd" clip-rule="evenodd" d="M1530.25 52.588C1654.99 141.006 1562.84 265.783 1598.81 381.198C1626.11 468.809 1726.85 558.281 1711.9 635.509C1693.08 732.738 1630.51 819.362 1511.09 834.31C1381.82 850.491 1210.33 810.269 1086.28 713.822C970.712 623.968 977.346 502.338 940.838 390.942C910.793 299.268 849.583 197.113 895.554 131.862C941.166 67.12 1066.21 85.6757 1164.56 73.392C1286.84 58.118 1408.19 -33.928 1530.25 52.588Z" fill="#FFE8AE"/>
<path fill-rule="evenodd" clip-rule="evenodd" d="M1039.75 171.735C1090.94 88.9373 1176.01 10.9803 1304.93 22.7023C1421.73 33.3223 1501.33 141.163 1586.5 221.45C1645.82 277.366 1685.46 335.614 1706.76 401.472C1736.69 493.975 1801.31 605.639 1728.66 660.816C1652.08 718.977 1509.27 675.163 1388.07 643.517C1253.94 608.497 1099.17 578.535 1024.1 476.855C946.421 371.639 984.977 260.309 1039.75 171.735Z" fill="#FFDF8D"/>
</g>
</g>
<defs>
<clipPath id="clip0_407_2">
<rect width="1447" height="696" fill="white"/>
</clipPath>
</defs>
</svg>
